<svg width="254" height="120" viewBox="0 0 254 120" fill="none" xmlns="http://www.w3.org/2000/svg">
<rect width="253.953" height="120" fill="white"/>
<path d="M193.679 68.1262H204.119V69.8211H194.015C193.838 69.8211 193.768 69.7467 193.726 69.6665C193.691 69.5978 193.685 69.5005 193.685 69.5005V68.1262H193.679ZM190.302 63.5967V69.6952C190.39 70.8232 191.304 71.665 192.441 71.7967H207.496V63.6024H204.119V66.3338H193.679V63.6024H190.302V63.5967ZM129.67 69.7696H120.916C120.763 69.7696 120.728 69.7181 120.704 69.6608V65.5093H129.67V69.7696ZM133.042 63.4993H117.332V69.7066C117.421 70.8175 118.282 71.7051 119.425 71.7795H133.042V63.4993ZM90.8245 70.1304C91.9504 68.9278 92.5988 67.147 92.5988 64.719V50.9989H88.7319V64.7133C88.7319 66.1792 88.3783 67.1699 87.8065 67.7826C87.2406 68.3896 86.4802 68.6129 85.7139 68.6186H85.6726C84.1459 68.6186 82.9434 68.0002 81.9531 66.8664L79.8252 69.1225C81.1338 70.7087 83.0319 72.0028 85.9084 72.0028C87.9833 72.0028 89.681 71.3615 90.8304 70.1304M107.86 65.8528C107.86 67.7024 106.522 68.9794 105.001 69.2886C104.541 69.3859 104.17 69.4031 103.981 69.4031C103.793 69.4031 100.444 69.4031 100.444 69.4031V62.2911C100.444 62.2911 103.981 62.2911 103.987 62.2911C104.453 62.2911 104.995 62.4056 105.007 62.4056C106.528 62.7263 107.848 64.1808 107.86 65.8299V65.8586V65.8528ZM106.115 56.6565C106.097 58.4087 104.553 60.0464 102.908 60.0521C102.879 60.0521 100.444 60.0636 100.444 60.0636V53.1806C100.444 53.1806 100.881 53.152 101.37 53.152C101.906 53.152 102.631 53.1749 103.339 53.278C104.736 53.4899 106.097 54.9901 106.115 56.5935V56.6508V56.6565ZM111.933 66.1105V66.0762C111.933 63.5566 110.07 61.6612 107.359 60.8481L106.864 60.6992L107.323 60.4473C108.915 59.554 109.758 58.2484 109.764 56.4561V56.3873C109.764 55.0589 109.222 53.7075 108.072 52.6939C106.934 51.6918 105.213 51.0276 102.873 51.0104H96.725V71.7108H103.928C106.693 71.7108 108.697 70.9721 110.011 69.8898C111.314 68.819 111.927 67.4218 111.939 66.122M114.267 61.2661H136.873V59.2562H132.753V50.9188H117.12L117.887 52.923H129.381V59.2562H113.519L114.267 61.2661ZM153.572 54.1312C153.572 55.4139 152.305 56.4675 150.725 56.4675C149.146 56.4675 147.878 55.4082 147.878 54.1312C147.878 52.8485 149.146 51.7949 150.725 51.7949C152.305 51.7949 153.572 52.8542 153.572 54.1312ZM156.691 54.1312C156.691 51.6116 154.009 49.596 150.725 49.596C147.442 49.596 144.76 51.6116 144.76 54.1312C144.76 56.6508 147.448 58.6664 150.725 58.6721C154.009 58.6721 156.691 56.6565 156.691 54.1312ZM153.696 67.691C153.696 69.0309 152.376 70.1304 150.725 70.1304C149.075 70.1304 147.76 69.0309 147.754 67.691C147.754 66.351 149.075 65.2516 150.725 65.2516C152.376 65.2516 153.69 66.351 153.696 67.691ZM153.095 63.3218C152.364 63.0928 151.562 62.9611 150.725 62.9611C149.888 62.9611 149.087 63.0928 148.356 63.3218V61.2604H153.101V63.3218H153.095ZM155.818 61.2661H162.12V59.2676H139.355L140.103 61.2661H145.638V64.9882C144.937 65.7498 144.518 66.6831 144.518 67.691C144.518 70.3136 147.312 72.4094 150.731 72.4151C154.15 72.4151 156.938 70.3136 156.944 67.691C156.944 66.6831 156.526 65.7498 155.824 64.9882V61.2661H155.818ZM178.454 65.8986H181.831V52.2415H164.607L165.379 54.2457H178.448V65.8986H178.454ZM162.833 69.8841H185.828V67.7139H161.907L162.833 69.8841ZM192.701 59.0329H208.115V57.023H194.121C193.809 57.023 193.785 56.7825 193.779 56.708V55.7288H207.667V50.6153H189.677L190.437 52.6252H204.301V53.9308H190.402V56.6908C190.443 57.9277 191.445 58.9413 192.707 59.0329M210.497 62.2968V60.2869H186.883L187.655 62.2968H196.992V65.2115H200.417V62.2968H210.497Z" fill="black"/>
<path d="M43.4614 46V74.2247H72.5159V74.1903L65.2537 67.17L70.6414 61.9362L72.5159 63.6712V46H43.4614Z" fill="#0091D0"/>
<path d="M43.4614 60.1095L50.7236 53.0547L43.4614 46V60.1095Z" fill="#009CD8"/>
<path d="M43.4614 46L50.7236 53.0547L57.9857 46H43.4614Z" fill="#0091D0"/>
<path d="M43.4614 60.1093H57.9857L50.7236 53.0546L43.4614 60.1093Z" fill="#0091D0"/>
<path d="M50.7231 53.0547L57.9853 60.1094V45.9999L50.7231 53.0547Z" fill="#0082C9"/>
<path d="M57.9858 45.9999V60.1094L65.2539 53.0547L57.9858 45.9999Z" fill="#0070BB"/>
<path d="M72.516 45.9999H57.9858L65.2539 53.0547L72.516 45.9999Z" fill="#0060AF"/>
<path d="M57.9858 60.1093H72.516L65.2539 53.0546L57.9858 60.1093Z" fill="#004C98"/>
<path d="M65.2542 53.0547L72.5163 60.1094V45.9999L65.2542 53.0547Z" fill="#00529C"/>
<path d="M43.4614 74.2248L50.7236 67.17L43.4614 60.1096V74.2248Z" fill="#0070BB"/>
<path d="M43.4614 60.1096L50.7236 67.17L57.9857 60.1096H43.4614Z" fill="#0082C9"/>
<path d="M43.4614 74.2247H57.9857L50.7236 67.17L43.4614 74.2247Z" fill="#0060AF"/>
<path d="M50.7231 67.17L57.9853 74.2248V60.1096L50.7231 67.17Z" fill="#00529C"/>
<path d="M57.9858 74.2248L65.2539 67.17L57.9858 60.1096V74.2248Z" fill="#004C98"/>
<path d="M72.516 60.1096H57.9858L65.2539 67.17L72.516 60.1096Z" fill="#1C378A"/>
<path d="M72.5163 60.1096L70.6418 61.9362L72.5163 63.6713V60.1096Z" fill="#1C378A"/>
<path d="M57.9858 74.2247H72.516V74.1904L65.2539 67.17L57.9858 74.2247Z" fill="#1C378A"/>
<path d="M72.516 60.1096H57.9858L65.2539 67.17L72.516 60.1096Z" fill="#1C378A"/>
<path d="M72.5163 60.1096L70.6418 61.9362L72.5163 63.6713V60.1096Z" fill="#1C378A"/>
<path d="M57.9858 74.2247H72.516V74.1904L65.2539 67.17L57.9858 74.2247Z" fill="#1C378A"/>
<path d="M49.0618 68.7791L54.249 73.8182L63.2383 65.2116L65.2542 67.17L72.5164 74.1904V63.6713L63.2088 55.0418L49.0618 68.7791Z" fill="white"/>
</svg>
