<svg width="2836" height="1773" viewBox="0 0 2836 1773" fill="none" xmlns="http://www.w3.org/2000/svg">
<path d="M142.175 765.15C142.175 671.075 221.2 605.05 315.375 605.05C393.55 605.05 481 654.375 481 737.975C481 799 434.75 841.65 374.225 841.65C313.7 841.65 282.575 794 297.725 743C348.175 742.175 375.9 703.7 375.9 668.575C375.9 640.15 359.1 610.05 309.475 610.05C229.625 610.05 176.65 676.1 176.65 764.725C176.65 858.35 248.1 944.475 400.275 944.475C552.45 944.475 618.025 867.575 618.025 785.625C618.025 630.95 298.55 615.075 298.55 427.775C298.55 311.575 417.925 247.175 542.775 247.175C654.175 247.175 744.125 289.825 744.125 374.25C744.125 446.15 689.475 478.775 640.725 478.775C598.7 478.775 553.275 451.175 564.225 391C605.425 381.8 623.925 352.525 623.925 322.425C623.925 286.475 604.6 252.2 543.2 252.2C475.95 252.2 431.4 287.325 431.4 348.35C431.4 476.275 739.1 499.675 739.1 686.95C739.1 839.1 595.325 949.475 400.275 949.475C222.875 949.475 142.175 862.525 142.175 765.125V765.15Z" fill="white"/>
<path d="M808.125 424.125H771.275L772.1 419.125C891.375 419.125 959.3 379.95 980 261.55H984.975L958.475 419.125H1016.45L1015.63 424.125H958.075L916.25 680.075C897.2 797.65 897.2 841.425 941.925 855.6V857.675C912.125 861.85 892.225 863.5 872.35 863.5C801.95 863.5 744.8 835.15 761.35 729.275L808.15 424.125H808.125Z" fill="white"/>
<path d="M1005.78 720.85L1043.65 486.4C1048.5 454.45 1036.4 450.35 1009.8 456.075V454.025C1038.03 436.4 1094.45 420.825 1133.15 420.825C1171.85 420.825 1189.18 432.7 1189.18 467.55C1189.18 509.75 1142 738.05 1140.8 786.825C1140.4 810.6 1149.68 822.475 1165.4 822.475C1209.75 822.475 1257.33 723.3 1287.15 601.15C1300.85 544.575 1323.42 441.7 1296.02 427.775V425.725C1324.25 421.625 1346.82 419.15 1366.17 419.15C1429.87 419.15 1459.3 446.2 1441.15 547.85L1417.78 678.2C1404.88 748.7 1398.43 840.925 1433.9 854.85V856.9C1412.93 861 1393.58 862.625 1374.23 862.625C1306.5 862.625 1246.43 833.525 1268.2 730.65L1294.8 603.575H1292.4C1238.38 813.425 1169.85 863.425 1097.28 863.425C996.5 863.425 996.9 777.35 1005.78 720.8V720.85Z" fill="white"/>
<path d="M1489.42 710.65C1489.42 557.4 1607.07 412.4 1803.47 416.525L1803.05 419.825C1686.2 418.6 1639.4 632.15 1639.4 756.075C1639.4 793.25 1646.42 824.65 1670.47 824.65C1718.12 824.65 1775.7 689.15 1795.17 565.65L1841.17 270.275C1846.15 238.05 1833.72 233.925 1806.37 239.7V237.625C1835.37 219.85 1892.55 204.15 1932.32 204.15C1979.57 204.15 1998.2 221.1 1988.67 277.7L1922.8 676.75C1911.2 748.2 1902.92 840.75 1939.37 854.8V856.875C1917.82 861 1897.95 862.675 1878.05 862.675C1808.42 862.675 1747.95 833.325 1769.9 729.65L1796.82 602.425L1794.35 602C1743.8 807.725 1681.65 863.475 1607.07 863.475C1519.65 863.475 1489.42 785.825 1489.42 710.625V710.65Z" fill="white"/>
<path d="M1994.6 730.325L2038.13 483.8C2043.88 451.55 2031.15 447.4 2003.65 453.2V451.125C2032.38 433.35 2089.85 417.625 2129.25 417.625C2178.5 417.625 2192.05 437.9 2182.6 491.25L2149.78 678.2C2131.73 782.425 2129.25 841.575 2165.38 855.625V857.7C2144.03 861.85 2124.33 863.5 2104.63 863.5C2035.25 863.5 1975.75 835.375 1994.63 730.325H1994.6ZM2075.05 383.7C2091.88 355.575 2100.1 292.7 2075.48 261.275C2095.18 224.875 2132.93 204.2 2166.58 204.2C2197.78 204.2 2234.7 220.75 2234.7 267.075C2234.7 331.6 2160.83 388.675 2076.28 385.35L2075.05 383.7Z" fill="white"/>
<path d="M2693.35 617.275C2693.35 762.125 2569.3 892.15 2421.2 892.15C2302.55 892.15 2220.4 809.7 2220.4 694.5C2220.4 543.975 2342.78 419.175 2491.75 419.175C2611.23 419.175 2693.38 501.65 2693.38 617.275H2693.35ZM2541.9 525.225C2541.9 468.95 2531.55 424.45 2491.3 424.45C2400.03 424.45 2371.8 700.2 2371.8 787.9C2371.8 843.75 2383 886.95 2421.58 886.95C2513.7 886.95 2541.9 623.4 2541.9 525.25V525.225Z" fill="white"/>
<path d="M1528.8 1073V1345.75H1485.25V1073H1528.8Z" fill="white"/>
<path d="M1333.02 1347.55H1386.27L1297.12 1231.33C1316.3 1227.45 1331.72 1218.5 1343.4 1204.65C1355.05 1190.8 1360.87 1174.2 1360.87 1154.88C1360.87 1130.13 1351.55 1110.3 1332.87 1095.15C1315.9 1081.53 1288.45 1074.8 1250.35 1074.8H1199.42V1154.23L1280.15 1275.78L1333.02 1347.55ZM1242.82 1113.4H1258.37C1298.42 1113.4 1318.5 1127.4 1318.5 1155.25C1318.5 1185.05 1297.9 1199.95 1256.7 1199.95H1242.82V1113.4Z" fill="white"/>
<path d="M962.851 1210.98V1249.73H1034.75C1032.83 1268.9 1023.23 1285.35 1006.25 1299.08C1005.35 1299.88 1004.45 1300.5 1003.53 1301.15L1030.88 1331.88C1037.35 1327.08 1043.45 1321.63 1049.15 1315.53C1060.93 1302.83 1069.35 1289.1 1074.28 1274.6C1079.33 1258.8 1081.93 1240.65 1081.93 1220.18V1211.1H962.851V1210.98Z" fill="white"/>
<path d="M875.001 1143.48C895.601 1123.53 921.251 1113.68 951.701 1113.68C985.651 1113.68 1014.4 1128.58 1038.13 1158.38L1069.08 1130.28C1051.08 1110.7 1032.68 1096.7 1014 1088.05C994.426 1079.38 973.451 1075.08 950.901 1075.08C908.926 1075.08 873.426 1088.95 844.151 1116.55C843.126 1117.48 842.201 1118.5 841.176 1119.53L868.526 1150.25C870.601 1147.93 872.801 1145.7 875.001 1143.53V1143.48Z" fill="white"/>
<path d="M1653.98 1074.8V1248.03L1697.38 1313.48V1217.73H1794.3V1178.98H1697.38V1113.4H1794.3V1074.8H1653.98Z" fill="white"/>
<path d="M2062.75 1113.4V1074.8H1918.93V1248.03L1962.35 1313.48V1217.73H2059.28V1178.98H1962.35V1113.4H2062.78H2062.75Z" fill="white"/>
<path d="M1750.8 1537.63C1750.8 1545.75 1754.48 1550.8 1765.5 1550.8C1769.48 1550.8 1772.55 1550.08 1775.6 1548.58L1776.83 1548C1778.35 1547.28 1779.28 1546.58 1782.03 1546.58C1786.6 1546.58 1790.13 1549.18 1790.13 1552.23C1790.13 1557.65 1777.73 1562.35 1764.73 1562.35C1743.3 1562.35 1733.5 1552.58 1733.5 1537.63V1518.9C1733.5 1503.93 1743.3 1494.18 1764.73 1494.18C1777.75 1494.18 1790.13 1498.75 1790.13 1504.3C1790.13 1507.38 1786.75 1509.95 1782.03 1509.95C1779.28 1509.95 1778.35 1509.25 1776.83 1508.55L1775.6 1507.95C1772.55 1506.43 1769.33 1505.73 1765.5 1505.73C1754.48 1505.73 1750.8 1510.78 1750.8 1518.9V1537.63Z" fill="#FFEE00"/>
<path d="M1799.47 1525.85V1512.2C1799.47 1502.45 1806.05 1494.08 1822.9 1494.08C1839.75 1494.08 1846.32 1502.33 1846.32 1512.2V1525.85C1846.32 1535.98 1838.52 1543.98 1822.9 1543.98C1807.42 1544.1 1799.47 1535.98 1799.47 1525.85ZM1812.17 1512.2V1525.85C1812.17 1531.38 1815.55 1535.27 1822.87 1535.27C1830.2 1535.27 1833.6 1531.4 1833.6 1525.85V1512.2C1833.6 1506.55 1830.7 1502.9 1822.87 1502.9C1815.05 1502.9 1812.17 1506.55 1812.17 1512.2Z" fill="#FFEE00"/>
<path d="M1838.38 1562.7H1807.93C1803.33 1562.7 1799.65 1560.23 1799.65 1556.95C1799.65 1553.88 1803.15 1551.17 1807.93 1551.17H1838.38C1842.98 1551.17 1846.48 1553.78 1846.48 1556.95C1846.33 1560.25 1842.8 1562.7 1838.38 1562.7Z" fill="#FFEE00"/>
<path d="M999.55 1538.85C999.55 1547.58 1002.6 1553.25 1011.8 1553.25C1015.02 1553.25 1017.77 1552.5 1020.22 1550.8L1021.27 1550.2C1022.67 1549.43 1023.27 1548.68 1025.72 1548.68C1029.55 1548.68 1032.45 1551.58 1032.45 1554.8C1032.45 1560.78 1022.2 1565.83 1011.32 1565.83C993.4 1565.83 985.3 1555.13 985.3 1539.03V1518.83C985.3 1502.6 993.4 1492.03 1011.32 1492.03C1022.2 1492.03 1032.45 1497.08 1032.45 1503.05C1032.45 1506.25 1029.55 1509.18 1025.72 1509.18C1023.42 1509.18 1022.67 1508.43 1021.27 1507.65L1020.22 1507.05C1017.62 1505.35 1015.02 1504.6 1011.8 1504.6C1002.62 1504.6 999.55 1510.1 999.55 1519V1538.9V1538.85Z" fill="#FFEE00"/>
<path d="M1119.1 1533.95L1133.2 1555.08C1136.58 1560.13 1131.5 1565.65 1126.93 1565.65C1124.33 1565.65 1122.18 1564.58 1120.95 1562.43L1103.8 1535.48H1096.78V1558.9C1096.78 1562.4 1093.4 1565.63 1089.58 1565.63C1085.75 1565.63 1082.53 1562.55 1082.53 1558.9V1499.95C1082.53 1495.98 1086.05 1492.6 1090.33 1492.6H1108.08C1127.38 1492.6 1133.48 1503.63 1133.48 1514.33C1133.33 1524.43 1127.98 1531.18 1119.08 1533.93L1119.1 1533.95ZM1107.63 1505.63H1096.75V1522.6H1108.23C1115.25 1522.6 1119.1 1519.7 1119.1 1514.33C1118.95 1510.05 1116.8 1505.6 1107.63 1505.6V1505.63Z" fill="#FFEE00"/>
<path d="M1221.83 1564.7H1194.73C1189.68 1564.7 1185.23 1563.03 1185.23 1557.5V1499.95C1185.23 1496.45 1188.6 1492.75 1193.03 1492.75H1220.73C1224.55 1492.75 1227.93 1495.83 1227.93 1499.35C1227.93 1502.88 1224.73 1505.63 1220.73 1505.63H1199.45V1522.15H1218.73C1222.25 1522.15 1225.78 1524.9 1225.78 1528.58C1225.78 1532.25 1222.7 1535.15 1218.73 1535.15H1199.45V1551.82H1221.8C1225.63 1551.82 1229 1554.73 1229 1558.1C1229 1561.78 1225.63 1564.68 1221.8 1564.68L1221.83 1564.7Z" fill="#FFEE00"/>
<path d="M1290.57 1560.88C1289.5 1563.78 1286.3 1565.63 1283.85 1565.63C1279.87 1565.63 1276.5 1563.03 1276.5 1559.03C1276.5 1558.58 1276.65 1557.35 1276.82 1556.73L1296.72 1498.55C1298.1 1494.58 1300.1 1491.68 1305 1491.68C1309.9 1491.68 1311.9 1494.58 1313.42 1498.55L1333.32 1556.73C1333.47 1557.18 1333.62 1558.43 1333.62 1559.03C1333.62 1562.85 1330.42 1565.63 1326.27 1565.63C1323.67 1565.63 1320.3 1563.63 1319.22 1560.88L1315.72 1550.48H1293.97L1290.6 1560.88H1290.57ZM1306.97 1521.4C1306.05 1518.5 1305.6 1514.5 1305.15 1511.45C1304.7 1514.68 1304.22 1518.5 1303.3 1521.4L1297.95 1538.85H1312.35L1307 1521.4H1306.97Z" fill="#FFEE00"/>
<path d="M1389.15 1505.63H1378.27C1374.12 1505.63 1371.07 1502.73 1371.07 1499.2C1371.07 1496.3 1374.27 1492.63 1378.27 1492.63H1414.25C1417.93 1492.63 1421.45 1495.53 1421.45 1499.2C1421.45 1502.88 1418.07 1505.63 1414.25 1505.63H1403.37V1559.2C1403.37 1562.73 1400.15 1565.78 1396.17 1565.78C1392.2 1565.78 1388.98 1562.73 1388.98 1559.2V1505.63H1389.15Z" fill="#FFEE00"/>
<path d="M1470.9 1498.28C1470.9 1494.75 1474.13 1491.7 1478.1 1491.7C1482.08 1491.7 1485.3 1494.75 1485.3 1498.28V1559.2C1485.3 1562.73 1482.1 1565.78 1478.1 1565.78C1474.1 1565.78 1470.9 1562.73 1470.9 1559.2V1498.28Z" fill="#FFEE00"/>
<path d="M1577.45 1496.58C1578.5 1493.68 1581.72 1491.82 1584.32 1491.82C1588.47 1491.82 1591.67 1494.43 1591.67 1498.43C1591.67 1498.88 1591.52 1500.1 1591.35 1500.72L1571.45 1558.9C1570.07 1563.03 1567.92 1565.78 1563.02 1565.78C1558.12 1565.78 1556 1562.88 1554.77 1558.9L1534.87 1500.72C1534.72 1500.27 1534.57 1499.03 1534.57 1498.43C1534.57 1494.6 1537.95 1491.82 1541.92 1491.82C1544.37 1491.82 1547.6 1493.65 1548.65 1496.58L1561.2 1536.08C1562.12 1538.98 1562.57 1542.97 1563.02 1546.02C1563.5 1542.82 1563.95 1539 1564.87 1536.08L1577.42 1496.58H1577.45Z" fill="#FFEE00"/>
<path d="M1677.73 1564.7H1650.62C1645.57 1564.7 1641.12 1563.03 1641.12 1557.5V1499.95C1641.12 1496.45 1644.5 1492.75 1648.92 1492.75H1676.65C1680.47 1492.75 1683.85 1495.83 1683.85 1499.35C1683.85 1502.88 1680.62 1505.63 1676.65 1505.63H1655.38V1522.15H1674.67C1678.2 1522.15 1681.7 1524.9 1681.7 1528.58C1681.7 1532.25 1678.65 1535.15 1674.67 1535.15H1655.38V1551.82H1677.73C1681.55 1551.82 1684.92 1554.73 1684.92 1558.1C1684.92 1561.78 1681.55 1564.68 1677.73 1564.68V1564.7Z" fill="#FFEE00"/>
</svg>
