<svg width="254" height="120" viewBox="0 0 254 120" fill="none" xmlns="http://www.w3.org/2000/svg">
<rect width="253.953" height="120" fill="white"/>
<path d="M43.0029 81.5285H48.4863V91.7167H52.3564V81.5285H57.8772V78.4362H43.0029V81.5285Z" fill="black"/>
<path d="M43.0044 81.5325H48.4878V91.7208H52.3578V81.5325H57.8787V78.4402H43.0044V81.5325Z" fill="black"/>
<path d="M75.3827 87.5618L72.2147 78.4362H68.6479L65.4792 87.5618L62.5763 78.4362H58.6116L63.4686 91.7167H67.2821L70.3935 82.4772L73.4858 91.7167H77.3368L82.1747 78.4362H78.2856L75.3827 87.5618Z" fill="black"/>
<path d="M87.3822 78.4362H83.5122V91.7167H87.3822V78.4362Z" fill="black"/>
<path d="M102.072 86.5557L94.1987 78.4362H90.1011V91.7167H93.8382V82.989L102.414 91.7167H105.81V78.4362H102.072V86.5557Z" fill="black"/>
<path d="M117.788 84.811L112.798 78.4362H108.568V91.7167H112.305V83.2358L117.598 89.7244H117.788L123.082 83.2358V91.7167H126.932V78.4362H122.816L117.788 84.811Z" fill="black"/>
<path d="M137.592 78C132.337 78 128.941 80.5805 128.941 85.0768C128.941 89.5732 132.337 92.1537 137.592 92.1537C142.848 92.1537 146.263 89.5732 146.263 85.0768C146.263 80.5805 142.848 78 137.592 78ZM137.592 89.0033C134.67 89.0033 132.868 87.5802 132.868 85.0761C132.868 82.572 134.689 81.1488 137.592 81.1488C140.495 81.1488 142.316 82.572 142.316 85.0761C142.316 87.5802 140.514 89.0033 137.592 89.0033Z" fill="black"/>
<path d="M146.872 81.5285H152.354V91.7167H156.225V81.5285H161.746V78.4362H146.872V81.5285Z" fill="black"/>
<path d="M166.972 78.4362H163.102V91.7167H166.972V78.4362Z" fill="black"/>
<path d="M177.621 78C172.366 78 168.97 80.5805 168.97 85.0768C168.97 89.5732 172.366 92.1537 177.621 92.1537C182.876 92.1537 186.292 89.5732 186.292 85.0768C186.292 80.5805 182.876 78 177.621 78ZM177.621 89.0033C174.699 89.0033 172.897 87.5802 172.897 85.0761C172.897 82.572 174.718 81.1488 177.621 81.1488C180.524 81.1488 182.345 82.572 182.345 85.0761C182.345 87.5802 180.543 89.0033 177.621 89.0033Z" fill="black"/>
<path d="M200.262 78.4362V86.5557L192.388 78.4362H188.291V91.7167H192.028V82.989L200.604 91.7167H204V78.4362H200.262Z" fill="black"/>
<path d="M118.809 67L121.567 47.6917H103C103 57.2384 109.793 65.1974 118.809 67Z" fill="black"/>
<path d="M133.238 39.8152H140.746C137.708 32.8604 130.767 28 122.692 28C114.617 28 107.677 32.8604 104.639 39.8152H130.569V39.8233L126.688 66.9773C135.648 65.1303 142.384 57.1977 142.384 47.6917H132.112L133.238 39.8152Z" fill="black"/>
</svg>
