<svg width="254" height="120" viewBox="0 0 254 120" fill="none" xmlns="http://www.w3.org/2000/svg">
<rect width="253.953" height="120" fill="white"/>
<path d="M149.555 85.2406L147.773 80.1895H146.921L145.139 85.2406H145.752L146.279 83.6963H148.415L148.942 85.2406H149.555ZM147.333 80.6512H147.354L148.256 83.2056H146.431L147.333 80.6512Z" fill="#005EA1"/>
<path d="M153.582 80.103C152.63 80.103 152.023 80.6874 152.023 81.4597C152.023 82.2172 152.565 82.5926 153.546 82.8667C154.556 83.1482 155.011 83.3358 155.011 83.9057C155.011 84.447 154.636 84.7861 153.849 84.7861C153.07 84.7861 152.5 84.2593 152.161 83.747H152.132L151.814 84.2811C152.132 84.7718 152.882 85.3274 153.864 85.3274C154.924 85.3274 155.581 84.8078 155.581 83.8914C155.581 83.0038 154.903 82.6935 153.95 82.4265C152.846 82.1162 152.601 81.9142 152.601 81.4452C152.601 81.0195 152.918 80.6298 153.597 80.6298C154.203 80.6298 154.7 81.041 154.996 81.539H155.025L155.343 81.0338C155.04 80.5575 154.405 80.103 153.582 80.103Z" fill="#005EA1"/>
<path d="M156.725 79.7854C156.444 79.7854 156.292 79.9586 156.292 80.2184C156.292 80.4709 156.444 80.6441 156.725 80.6441C157.007 80.6441 157.158 80.4709 157.158 80.2184C157.158 79.9586 157.007 79.7854 156.725 79.7854ZM156.999 85.2407V81.1998H156.458V85.2407H156.999Z" fill="#005EA1"/>
<path d="M159.683 81.1132C158.694 81.1132 157.872 81.9792 157.872 83.2058C157.872 84.4398 158.499 85.3274 159.733 85.3274C160.404 85.3274 160.996 84.9954 161.299 84.5624L161.025 84.0574H161.003C160.794 84.3822 160.376 84.8151 159.726 84.8151C158.947 84.8151 158.449 84.245 158.406 83.4007H161.422C161.422 83.4007 161.429 83.2708 161.429 83.1625C161.429 81.8926 160.671 81.1132 159.683 81.1132ZM159.683 81.6039C160.332 81.6039 160.837 82.0513 160.888 82.9245H158.427C158.499 82.174 158.997 81.6039 159.683 81.6039Z" fill="#005EA1"/>
<path d="M166.25 81.1132C165.643 81.1132 165.232 81.4235 165.037 81.7988H165.016C164.879 81.4235 164.511 81.1132 163.969 81.1132C163.421 81.1132 163.067 81.3586 162.851 81.7338H162.837L162.772 81.1999H162.302V85.2408H162.844V82.9245C162.844 82.0874 163.277 81.6039 163.832 81.6039C164.294 81.6039 164.583 81.8637 164.583 82.5636V85.2408H165.124V82.9245C165.124 82.0586 165.571 81.6039 166.12 81.6039C166.589 81.6039 166.877 81.8637 166.877 82.5636V85.2408H167.419V82.3616C167.419 81.5751 166.979 81.1132 166.25 81.1132Z" fill="#005EA1"/>
<path d="M170.034 81.1132C169.046 81.1132 168.223 81.9792 168.223 83.2058C168.223 84.4398 168.851 85.3274 170.085 85.3274C170.756 85.3274 171.348 84.9954 171.651 84.5624L171.377 84.0574H171.355C171.146 84.3822 170.727 84.8151 170.078 84.8151C169.298 84.8151 168.8 84.245 168.757 83.4007H171.773C171.773 83.4007 171.781 83.2708 171.781 83.1625C171.781 81.8926 171.023 81.1132 170.034 81.1132ZM170.034 81.6039C170.684 81.6039 171.189 82.0513 171.239 82.9245H168.779C168.851 82.174 169.349 81.6039 170.034 81.6039Z" fill="#005EA1"/>
<path d="M174.478 81.1132C173.893 81.1132 173.46 81.3802 173.208 81.7555H173.186L173.121 81.1999H172.652V85.2408H173.193V83.0759C173.193 82.1812 173.698 81.6039 174.377 81.6039C174.997 81.6039 175.315 82.0008 175.315 82.708V85.2408H175.856V82.5997C175.856 81.7698 175.394 81.1132 174.478 81.1132Z" fill="#005EA1"/>
<path d="M178.123 81.1132C177.264 81.1132 176.802 81.6617 176.802 82.2173C176.802 82.8161 177.17 83.1409 178.079 83.3719C179.126 83.6389 179.263 83.8625 179.263 84.2088C179.263 84.5264 178.996 84.8222 178.368 84.8222C177.747 84.8222 177.286 84.447 176.99 83.9563H176.968L176.658 84.4255C176.917 84.8727 177.574 85.3274 178.39 85.3274C179.205 85.3274 179.797 84.8727 179.797 84.2088C179.797 83.5523 179.407 83.213 178.447 82.9605C177.459 82.7008 177.336 82.4988 177.336 82.21C177.336 81.9359 177.56 81.6039 178.115 81.6039C178.693 81.6039 179.097 81.9575 179.342 82.3616H179.371L179.667 81.907C179.45 81.5751 178.938 81.1132 178.123 81.1132Z" fill="#005EA1"/>
<path d="M182.592 80.1895V85.2406H184.345C185.687 85.2406 186.055 84.5407 186.055 83.8912C186.055 83.2418 185.738 82.8449 185.262 82.6645V82.65C185.788 82.4263 186.055 82.0656 186.055 81.4883C186.055 80.6729 185.521 80.1895 184.526 80.1895H182.592ZM183.169 80.7162H184.482C185.182 80.7162 185.471 81.0481 185.471 81.5316C185.471 82.0944 185.031 82.4192 184.417 82.4192H183.169V80.7162ZM183.169 82.9315H184.432C185.16 82.9315 185.478 83.2634 185.478 83.819C185.478 84.3675 185.146 84.7139 184.367 84.7139H183.169V82.9315Z" fill="#005EA1"/>
<path d="M189.951 85.2421V81.2012H189.41V83.5607C189.41 84.3185 188.912 84.8235 188.262 84.8235C187.707 84.8235 187.433 84.4916 187.433 83.8422V81.2012H186.891V83.9216C186.891 84.7514 187.324 85.3287 188.205 85.3287C188.768 85.3287 189.179 85.0329 189.381 84.6793H189.403L189.482 85.2421H189.951Z" fill="#005EA1"/>
<path d="M192.208 81.1132C191.35 81.1132 190.888 81.6617 190.888 82.2173C190.888 82.8161 191.256 83.1409 192.165 83.3719C193.211 83.6389 193.348 83.8625 193.348 84.2088C193.348 84.5264 193.081 84.8222 192.453 84.8222C191.833 84.8222 191.371 84.447 191.075 83.9563H191.054L190.743 84.4255C191.003 84.8727 191.66 85.3274 192.475 85.3274C193.291 85.3274 193.882 84.8727 193.882 84.2088C193.882 83.5523 193.493 83.213 192.533 82.9605C191.544 82.7008 191.422 82.4988 191.422 82.21C191.422 81.9359 191.645 81.6039 192.201 81.6039C192.778 81.6039 193.182 81.9575 193.428 82.3616H193.456L193.752 81.907C193.536 81.5751 193.024 81.1132 192.208 81.1132Z" fill="#005EA1"/>
<path d="M195.026 79.7854C194.745 79.7854 194.593 79.9586 194.593 80.2184C194.593 80.4709 194.745 80.6441 195.026 80.6441C195.308 80.6441 195.459 80.4709 195.459 80.2184C195.459 79.9586 195.308 79.7854 195.026 79.7854ZM195.3 85.2407V81.1998H194.759V85.2407H195.3Z" fill="#005EA1"/>
<path d="M198.212 81.1132C197.628 81.1132 197.195 81.3802 196.942 81.7555H196.921L196.855 81.1999H196.386V85.2408H196.928V83.0759C196.928 82.1812 197.433 81.6039 198.111 81.6039C198.732 81.6039 199.049 82.0008 199.049 82.708V85.2408H199.59V82.5997C199.59 81.7698 199.129 81.1132 198.212 81.1132Z" fill="#005EA1"/>
<path d="M202.209 81.1132C201.22 81.1132 200.398 81.9792 200.398 83.2058C200.398 84.4398 201.026 85.3274 202.26 85.3274C202.931 85.3274 203.522 84.9954 203.825 84.5624L203.551 84.0574H203.53C203.32 84.3822 202.902 84.8151 202.252 84.8151C201.473 84.8151 200.975 84.245 200.932 83.4007H203.948C203.948 83.4007 203.955 83.2708 203.955 83.1625C203.955 81.8926 203.198 81.1132 202.209 81.1132ZM202.209 81.6039C202.858 81.6039 203.363 82.0513 203.414 82.9245H200.953C201.026 82.174 201.524 81.6039 202.209 81.6039Z" fill="#005EA1"/>
<path d="M206.071 81.1132C205.212 81.1132 204.75 81.6617 204.75 82.2173C204.75 82.8161 205.118 83.1409 206.027 83.3719C207.074 83.6389 207.211 83.8625 207.211 84.2088C207.211 84.5264 206.944 84.8222 206.316 84.8222C205.695 84.8222 205.234 84.447 204.938 83.9563H204.916L204.606 84.4255C204.865 84.8727 205.522 85.3274 206.338 85.3274C207.153 85.3274 207.745 84.8727 207.745 84.2088C207.745 83.5523 207.355 83.213 206.395 82.9605C205.407 82.7008 205.284 82.4988 205.284 82.21C205.284 81.9359 205.508 81.6039 206.063 81.6039C206.641 81.6039 207.045 81.9575 207.29 82.3616H207.319L207.615 81.907C207.398 81.5751 206.886 81.1132 206.071 81.1132Z" fill="#005EA1"/>
<path d="M209.861 81.1132C209.002 81.1132 208.54 81.6617 208.54 82.2173C208.54 82.8161 208.908 83.1409 209.818 83.3719C210.864 83.6389 211.001 83.8625 211.001 84.2088C211.001 84.5264 210.734 84.8222 210.106 84.8222C209.486 84.8222 209.024 84.447 208.728 83.9563H208.706L208.396 84.4255C208.656 84.8727 209.312 85.3274 210.128 85.3274C210.943 85.3274 211.535 84.8727 211.535 84.2088C211.535 83.5523 211.145 83.213 210.186 82.9605C209.197 82.7008 209.074 82.4988 209.074 82.21C209.074 81.9359 209.298 81.6039 209.854 81.6039C210.431 81.6039 210.835 81.9575 211.08 82.3616H211.109L211.405 81.907C211.189 81.5751 210.676 81.1132 209.861 81.1132Z" fill="#005EA1"/>
<path d="M122.272 58.2353C119.414 58.2353 117.489 59.6189 116.737 61.183H116.647C115.865 59.5587 114.151 58.2353 111.594 58.2353C109.518 58.2353 107.894 59.0173 106.751 60.822H106.661L106.39 58.5963H102.42V75.4404H107.413V67.0484C107.413 64.4617 108.345 62.6569 110.451 62.6569C112.015 62.6569 112.917 63.4991 112.917 66.1461V75.4404H117.88V67.0484C117.88 64.4315 118.813 62.6569 120.918 62.6569C122.482 62.6569 123.385 63.4991 123.385 66.1461V75.4404H128.378V64.2511C128.378 62.4765 127.445 58.2353 122.272 58.2353Z" fill="#005EA1"/>
<path d="M138.661 58.2353C134.029 58.2353 130.48 61.6643 130.48 67.1085C130.48 72.643 134.059 75.8014 138.992 75.8014C142.06 75.8014 144.346 74.7786 145.369 73.9665L143.775 69.8157H143.534C142.512 70.5977 141.068 71.4399 138.902 71.4399C136.796 71.4399 135.443 70.327 135.353 68.7027H146.512C146.512 68.7027 146.542 67.7101 146.542 67.1988C146.542 61.8448 143.414 58.2353 138.661 58.2353ZM138.751 62.4763C140.647 62.4763 141.82 63.7698 141.97 65.0932H135.533C135.744 63.7398 136.887 62.4763 138.751 62.4763Z" fill="#005EA1"/>
<path d="M158.393 58.2353C156.107 58.2353 154.242 59.3182 153.279 60.822H153.189L152.918 58.5963H148.948V75.4404H153.941V67.0484C153.941 64.1006 155.716 62.6569 157.46 62.6569C158.964 62.6569 160.107 63.6495 160.107 65.6347V75.4404H165.1V64.1608C165.1 60.9423 162.935 58.2353 158.393 58.2353Z" fill="#005EA1"/>
<path d="M184.159 75.4391V53.1207H179.347V60.3395H179.286C178.354 59.016 176.7 58.234 174.714 58.234C170.202 58.234 167.195 62.2045 167.195 67.2577C167.195 72.1605 170.052 75.8001 174.594 75.8001C177.271 75.8001 178.745 74.7474 179.707 73.2134H179.798L180.219 75.4391H184.159ZM175.887 62.6556C178.053 62.6556 179.527 64.4604 179.527 67.017C179.527 69.7541 178.023 71.198 175.827 71.198C173.632 71.198 172.157 69.6039 172.157 67.0471C172.157 64.4904 173.722 62.6556 175.887 62.6556Z" fill="#005EA1"/>
<path d="M189.982 50.3829C187.966 50.3829 186.854 51.6162 186.854 53.451C186.854 55.2558 187.966 56.5792 189.982 56.5792C191.997 56.5792 193.11 55.2558 193.11 53.451C193.11 51.6162 191.997 50.3829 189.982 50.3829ZM192.418 75.4386V58.5945H187.455V75.4386H192.418Z" fill="#005EA1"/>
<path d="M206.058 66.9271L211.02 58.5953H205.215L202.749 63.7388L200.282 58.5953H194.477L199.44 66.9271L193.996 75.4393H199.861L202.749 70.1154L205.636 75.4393H211.502L206.058 66.9271Z" fill="#005EA1"/>
<path fill-rule="evenodd" clip-rule="evenodd" d="M85.2593 37.4384H51.8795C48.5745 37.4384 45.8952 40.1177 45.8952 43.4228V77.116C45.8952 80.4209 48.5745 83.1003 51.8795 83.1003H85.2593C88.5645 83.1003 91.2437 80.4209 91.2437 77.116V43.4228C91.2437 40.1177 88.5645 37.4384 85.2593 37.4384ZM51.8795 35C47.2278 35 43.4568 38.771 43.4568 43.4228V77.116C43.4568 81.7678 47.2278 85.5388 51.8795 85.5388H85.2593C89.911 85.5388 93.6822 81.7678 93.6822 77.116V43.4228C93.6822 38.771 89.911 35 85.2593 35H51.8795Z" fill="#005EA1"/>
<path d="M63.444 67.0096C62.032 67.0096 61.0807 67.687 60.7091 68.4527H60.6644C60.278 67.6576 59.4308 67.0096 58.1674 67.0096C57.1418 67.0096 56.3392 67.3926 55.7744 68.276H55.7298L55.596 67.1864H53.634V75.4328H56.1014V71.3243C56.1014 70.0578 56.5622 69.1744 57.6026 69.1744C58.3755 69.1744 58.8214 69.5866 58.8214 70.8824V75.4328H61.2739V71.3243C61.2739 70.0431 61.7347 69.1744 62.7751 69.1744C63.548 69.1744 63.9939 69.5866 63.9939 70.8824V75.4328H66.4612V69.9547C66.4612 69.0859 66.0005 67.0096 63.444 67.0096Z" fill="#005EA1"/>
<path d="M72.05 71.2642L74.5024 67.1851H71.6337L70.415 69.7032L69.1962 67.1851H66.3275L68.7799 71.2642L66.0896 75.4315H68.988L70.415 72.825L71.8419 75.4315H74.7403L72.05 71.2642Z" fill="#005EA1"/>
</svg>
