<svg width="60" height="60" viewBox="0 0 60 60" fill="none" xmlns="http://www.w3.org/2000/svg">
<path d="M0 42.3077C0 52.0762 7.92385 60 17.6923 60H42.3077C52.0762 60 60 52.0762 60 42.3077V17.6923C60 7.92385 52.0762 0 42.3077 0H17.6923C7.92385 0 0 7.92385 0 17.6923V42.3077ZM46.1538 10.7692C48.3083 10.7692 50 12.4609 50 14.6154C50 16.7698 48.3083 18.4615 46.1538 18.4615C43.9994 18.4615 42.3077 16.7698 42.3077 14.6154C42.3077 12.4609 43.9994 10.7692 46.1538 10.7692ZM30 15.3846C38.0769 15.3846 44.6154 21.9231 44.6154 30C44.6154 38.0769 38.0769 44.6154 30 44.6154C21.9231 44.6154 15.3846 38.0769 15.3846 30C15.3846 21.9231 21.9231 15.3846 30 15.3846Z" fill="#6A6A6A"/>
<path d="M40 30C40 35.5228 35.5228 40 30 40C24.4772 40 20 35.5228 20 30C20 24.4772 24.4772 20 30 20C35.5228 20 40 24.4772 40 30Z" fill="#6A6A6A"/>
</svg>
