<svg width="178" height="73" viewBox="0 0 178 73" fill="none" xmlns="http://www.w3.org/2000/svg">
<path d="M100.178 0V39.7357H93.8351V0H100.178V0Z" fill="black"/>
<path d="M71.6545 40H79.4129L66.4256 23.0675C69.2194 22.5012 71.4658 21.1987 73.1647 19.1789C74.8636 17.159 75.7131 14.7428 75.7131 11.9302C75.7131 8.32468 74.3539 5.43653 71.6357 3.22794C69.1628 1.24587 65.1609 0.264275 59.6111 0.264275H52.1925V11.8358L63.9528 29.5422L71.6545 40ZM58.5162 5.88958H60.7815C66.6144 5.88958 69.5403 7.92827 69.5403 11.9868C69.5403 16.3285 66.5389 18.4993 60.5361 18.4993H58.5162V5.88958Z" fill="black"/>
<path d="M17.7247 20.1038V25.748H28.2014C27.9182 28.5418 26.5213 30.9391 24.0485 32.9401C23.9163 33.0533 23.7842 33.1477 23.6521 33.2421L27.6351 37.7159C28.5789 37.0175 29.4661 36.2246 30.2967 35.3374C32.0145 33.4875 33.2415 31.4866 33.9588 29.3724C34.695 27.0694 35.0725 24.4266 35.0725 21.4441V20.1227H17.7247V20.1038Z" fill="black"/>
<path d="M4.92685 10.269C7.92827 7.36197 11.6659 5.92732 16.1019 5.92732C21.0477 5.92732 25.2383 8.09817 28.6928 12.4398L33.2044 8.34356C30.5805 5.49315 27.9 3.45447 25.1817 2.18972C22.3313 0.924972 19.2732 0.302036 15.9887 0.302036C9.87259 0.302036 4.70032 2.32185 0.434159 6.34262C0.283144 6.47475 0.151015 6.62578 0 6.77679L3.98301 11.2506C4.28504 10.9108 4.60595 10.5899 4.92685 10.269Z" fill="black"/>
<path d="M118.413 0.264275V25.5026L124.737 35.0354V21.0854H138.857V15.4412H124.737V5.88958H138.857V0.264275H118.413Z" fill="black"/>
<path d="M177.969 5.88958V0.264275H157.016V25.5026L163.339 35.0354V21.0854H177.459V15.4412H163.339V5.88958H177.969Z" fill="black"/>
<path d="M69.3282 67.094L72.9802 67.534C72.8922 69.096 72.5842 69.932 71.8142 70.768C70.8462 71.78 69.3502 72.264 67.1282 72.264C64.7522 72.264 63.3222 71.714 62.2882 70.394C61.5182 69.404 61.2322 68.194 61.2322 65.928V62.43C61.2322 59.988 61.5842 58.712 62.5302 57.7C63.5642 56.556 64.9062 56.094 67.1062 56.094C69.4602 56.094 70.9342 56.688 71.8582 57.986C72.4082 58.778 72.6282 59.57 72.6942 61L69.1082 61.242C68.9542 59.812 68.4042 59.24 67.1502 59.24C65.5882 59.24 65.1482 59.988 65.1482 62.738V65.62C65.1482 68.37 65.5662 69.118 67.1502 69.118C68.5362 69.118 69.1522 68.546 69.3282 67.094ZM81.7408 72V56.292H85.3708L89.1328 64.102L92.8948 56.292H96.5248V72H92.7848V63.53L90.3868 68.48H87.8788L85.4808 63.53V72H81.7408ZM104.696 69.36L107.666 67.468C108.37 68.678 109.294 69.14 110.966 69.14C112.352 69.14 113.012 68.634 113.012 67.578C113.012 66.742 112.572 66.302 111.428 66.016C108.678 65.334 108.106 65.136 107.27 64.608C106.016 63.794 105.444 62.628 105.444 60.846C105.444 57.7 107.358 56.028 110.944 56.028C113.65 56.028 115.366 56.908 116.444 58.8L113.562 60.626C112.792 59.548 112.066 59.152 110.878 59.152C109.778 59.152 109.184 59.658 109.184 60.582C109.184 61.638 109.778 62.078 111.89 62.606C113.892 63.112 114.376 63.288 115.168 63.794C116.246 64.498 116.752 65.642 116.752 67.402C116.752 69.118 116.334 70.24 115.432 71.01C114.442 71.846 112.88 72.286 110.922 72.286C109.118 72.286 107.446 71.89 106.346 71.164C105.62 70.702 105.18 70.24 104.696 69.36Z" fill="#FFAFAF"/>
</svg>
