<svg width="254" height="120" viewBox="0 0 254 120" fill="none" xmlns="http://www.w3.org/2000/svg">
<path d="M193.679 68.1261H204.119V69.8211H194.015C193.838 69.8211 193.768 69.7466 193.726 69.6665C193.691 69.5977 193.685 69.5004 193.685 69.5004V68.1261H193.679ZM190.302 63.5966V69.6951C190.39 70.8232 191.304 71.6649 192.441 71.7966H207.496V63.6024H204.119V66.3338H193.679V63.6024H190.302V63.5966ZM129.67 69.7695H120.916C120.763 69.7695 120.728 69.718 120.704 69.6607V65.5092H129.67V69.7695ZM133.042 63.4993H117.333V69.7065C117.421 70.8174 118.282 71.705 119.425 71.7795H133.042V63.4993ZM90.8245 70.1303C91.9504 68.9278 92.5988 67.1469 92.5988 64.719V50.9989H88.7319V64.7133C88.7319 66.1792 88.3783 67.1698 87.8065 67.7825C87.2406 68.3895 86.4802 68.6128 85.7139 68.6186H85.6726C84.1459 68.6186 82.9434 68.0001 81.9531 66.8663L79.8252 69.1225C81.1338 70.7086 83.0319 72.0028 85.9084 72.0028C87.9833 72.0028 89.681 71.3614 90.8304 70.1303M107.86 65.8528C107.86 67.7024 106.522 68.9793 105.001 69.2885C104.541 69.3859 104.17 69.4031 103.981 69.4031C103.793 69.4031 100.444 69.4031 100.444 69.4031V62.291C100.444 62.291 103.981 62.291 103.987 62.291C104.453 62.291 104.995 62.4056 105.007 62.4056C106.528 62.7262 107.848 64.1807 107.86 65.8299V65.8585V65.8528ZM106.115 56.6564C106.097 58.4087 104.553 60.0464 102.908 60.0521C102.879 60.0521 100.444 60.0635 100.444 60.0635V53.1806C100.444 53.1806 100.881 53.1519 101.37 53.1519C101.906 53.1519 102.631 53.1749 103.339 53.2779C104.736 53.4898 106.097 54.9901 106.115 56.5934V56.6507V56.6564ZM111.933 66.1105V66.0761C111.933 63.5566 110.07 61.6612 107.359 60.848L106.864 60.6992L107.323 60.4472C108.915 59.5539 109.758 58.2483 109.764 56.456V56.3873C109.764 55.0588 109.222 53.7074 108.072 52.6938C106.934 51.6918 105.213 51.0275 102.873 51.0103H96.725V71.7107H103.928C106.693 71.7107 108.697 70.972 110.011 69.8898C111.314 68.819 111.927 67.4218 111.939 66.1219M114.267 61.2661H136.873V59.2561H132.753V50.9187H117.12L117.887 52.9229H129.381V59.2561H113.519L114.267 61.2661ZM153.572 54.1311C153.572 55.4138 152.305 56.4675 150.725 56.4675C149.146 56.4675 147.878 55.4081 147.878 54.1311C147.878 52.8485 149.146 51.7948 150.725 51.7948C152.305 51.7948 153.572 52.8542 153.572 54.1311ZM156.691 54.1311C156.691 51.6116 154.009 49.5959 150.725 49.5959C147.442 49.5959 144.76 51.6116 144.76 54.1311C144.76 56.6507 147.448 58.6663 150.725 58.6721C154.009 58.6721 156.691 56.6564 156.691 54.1311ZM153.696 67.6909C153.696 69.0308 152.376 70.1303 150.725 70.1303C149.075 70.1303 147.76 69.0308 147.754 67.6909C147.754 66.351 149.075 65.2515 150.725 65.2515C152.376 65.2515 153.69 66.351 153.696 67.6909ZM153.095 63.3218C152.364 63.0927 151.562 62.961 150.725 62.961C149.888 62.961 149.087 63.0927 148.356 63.3218V61.2603H153.101V63.3218H153.095ZM155.818 61.2661H162.12V59.2676H139.355L140.103 61.2661H145.638V64.9881C144.937 65.7497 144.518 66.6831 144.518 67.6909C144.518 70.3135 147.312 72.4093 150.731 72.4151C154.15 72.4151 156.938 70.3135 156.944 67.6909C156.944 66.6831 156.526 65.7497 155.824 64.9881V61.2661H155.818ZM178.454 65.8986H181.831V52.2415H164.607L165.379 54.2457H178.448V65.8986H178.454ZM162.833 69.8841H185.828V67.7138H161.907L162.833 69.8841ZM192.701 59.0328H208.115V57.0229H194.121C193.809 57.0229 193.785 56.7824 193.779 56.708V55.7288H207.667V50.6152H189.677L190.437 52.6251H204.301V53.9307H190.402V56.6908C190.443 57.9276 191.445 58.9412 192.707 59.0328M210.497 62.2968V60.2869H186.883L187.655 62.2968H196.992V65.2114H200.417V62.2968H210.497Z" fill="black"/>
<path d="M43.4614 46V74.2247H72.5159V74.1903L65.2537 67.17L70.6414 61.9362L72.5159 63.6712V46H43.4614Z" fill="#0091D0"/>
<path d="M43.4614 60.1095L50.7236 53.0547L43.4614 46V60.1095Z" fill="#009CD8"/>
<path d="M43.4614 46L50.7236 53.0547L57.9857 46H43.4614Z" fill="#0091D0"/>
<path d="M43.4614 60.1093H57.9857L50.7236 53.0546L43.4614 60.1093Z" fill="#0091D0"/>
<path d="M50.7231 53.0546L57.9853 60.1094V45.9999L50.7231 53.0546Z" fill="#0082C9"/>
<path d="M57.9858 45.9999V60.1094L65.2539 53.0546L57.9858 45.9999Z" fill="#0070BB"/>
<path d="M72.516 45.9999H57.9858L65.2539 53.0546L72.516 45.9999Z" fill="#0060AF"/>
<path d="M57.9858 60.1093H72.516L65.2539 53.0546L57.9858 60.1093Z" fill="#004C98"/>
<path d="M65.2542 53.0546L72.5163 60.1094V45.9999L65.2542 53.0546Z" fill="#00529C"/>
<path d="M43.4614 74.2248L50.7236 67.1701L43.4614 60.1096V74.2248Z" fill="#0070BB"/>
<path d="M43.4614 60.1096L50.7236 67.1701L57.9857 60.1096H43.4614Z" fill="#0082C9"/>
<path d="M43.4614 74.2247H57.9857L50.7236 67.1699L43.4614 74.2247Z" fill="#0060AF"/>
<path d="M50.7231 67.1701L57.9853 74.2248V60.1096L50.7231 67.1701Z" fill="#00529C"/>
<path d="M57.9858 74.2248L65.2539 67.1701L57.9858 60.1096V74.2248Z" fill="#004C98"/>
<path d="M72.516 60.1096H57.9858L65.2539 67.1701L72.516 60.1096Z" fill="#1C378A"/>
<path d="M72.5163 60.1096L70.6418 61.9363L72.5163 63.6713V60.1096Z" fill="#1C378A"/>
<path d="M57.9858 74.2247H72.516V74.1903L65.2539 67.1699L57.9858 74.2247Z" fill="#1C378A"/>
<path d="M72.516 60.1096H57.9858L65.2539 67.1701L72.516 60.1096Z" fill="#1C378A"/>
<path d="M72.5163 60.1096L70.6418 61.9363L72.5163 63.6713V60.1096Z" fill="#1C378A"/>
<path d="M57.9858 74.2247H72.516V74.1903L65.2539 67.1699L57.9858 74.2247Z" fill="#1C378A"/>
<path d="M49.0618 68.7791L54.249 73.8183L63.2383 65.2117L65.2542 67.1701L72.5164 74.1905V63.6713L63.2088 55.0419L49.0618 68.7791Z" fill="white"/>
</svg>
