<svg width="254" height="120" viewBox="0 0 254 120" fill="none" xmlns="http://www.w3.org/2000/svg">
<mask id="mask0_98_463" style="mask-type:luminance" maskUnits="userSpaceOnUse" x="59" y="38" width="137" height="45">
<path d="M195.021 38H59V82.2278H195.021V38Z" fill="white"/>
</mask>
<g mask="url(#mask0_98_463)">
<path d="M115.247 44.3725C115.506 44.6319 115.411 44.848 115.264 44.995L114.771 45.4706C114.59 45.6522 114.356 45.6695 114.114 45.4706C113.31 44.7616 112.402 44.3206 111.252 44.3206C110.102 44.3206 108.814 44.9605 108.814 46.0845C108.814 47.2086 109.125 47.321 110.439 47.6669L112.843 48.324C114.736 48.8169 115.74 49.7853 115.74 51.4368C115.74 53.0884 114.322 54.8436 111.295 54.8436C108.269 54.8436 107.56 53.8579 106.885 53.0192C106.704 52.803 106.669 52.5263 106.903 52.3447L107.542 51.8519C107.776 51.6703 107.984 51.7654 108.148 51.9643C108.805 52.7079 109.842 53.3996 111.373 53.3996C112.904 53.3996 113.976 52.4917 113.976 51.5752C113.976 50.6586 113.37 50.1225 112.117 49.794L109.782 49.1714C107.906 48.6958 107.084 47.6236 107.084 46.1883C107.084 44.753 108.865 42.8939 111.295 42.8939C113.725 42.8939 114.442 43.5338 115.247 44.3725Z" fill="#AF0000"/>
<path d="M123.098 50.4253C123.098 48.9726 122.311 48.0907 120.91 48.0907C119.51 48.0907 118.61 49.0418 118.61 50.4253V54.3423C118.61 54.5065 118.463 54.6189 118.316 54.6189H117.331C117.166 54.6189 117.037 54.4893 117.037 54.3249V47.1655C117.037 46.9839 117.166 46.8542 117.331 46.8542H118.316C118.463 46.8542 118.61 46.9839 118.61 47.1482V48.0042C119.051 47.2347 120.046 46.6381 121.343 46.6381C123.418 46.6381 124.68 48.0561 124.68 50.0103V54.3423C124.68 54.5065 124.534 54.6189 124.369 54.6189H123.418C123.254 54.6189 123.107 54.5065 123.107 54.3423V50.4253H123.098Z" fill="#AF0000"/>
<path d="M129.799 46.6294C131.018 46.6294 132.022 47.252 132.445 48.0907V47.1655C132.445 46.9839 132.592 46.8542 132.756 46.8542H133.725C133.889 46.8542 134.019 46.9839 134.019 47.1655V54.3249C134.019 54.4892 133.889 54.6189 133.725 54.6189H132.756C132.592 54.6189 132.445 54.4892 132.445 54.3249V53.3825C132.004 54.2212 131.01 54.8351 129.782 54.8351C127.69 54.8351 125.882 53.1749 125.882 50.7193C125.882 48.2636 127.69 46.6207 129.799 46.6207V46.6294ZM129.981 53.3911C131.416 53.3911 132.462 52.2065 132.462 50.7452C132.462 49.2839 131.408 48.108 129.981 48.108C128.554 48.108 127.499 49.258 127.499 50.7452C127.499 52.2324 128.537 53.3911 129.981 53.3911Z" fill="#AF0000"/>
<path d="M140.054 46.6381C142.147 46.6381 143.919 48.2982 143.919 50.7193C143.919 53.1404 142.155 54.8351 140.037 54.8351C137.918 54.8351 137.849 54.2904 137.356 53.4343V57.7836C137.356 57.9479 137.227 58.0776 137.062 58.0776H136.077C135.912 58.0776 135.783 57.9479 135.783 57.7836V47.1655C135.783 46.9839 135.912 46.8542 136.077 46.8542H137.045C137.209 46.8542 137.339 46.9839 137.339 47.1655V48.0907C137.815 47.252 138.818 46.6381 140.054 46.6381ZM139.838 53.3911C141.273 53.3911 142.311 52.2238 142.311 50.7452C142.311 49.2666 141.273 48.108 139.838 48.108C138.403 48.108 137.339 49.2753 137.339 50.7452C137.339 52.2152 138.394 53.3911 139.838 53.3911Z" fill="#AF0000"/>
<path d="M148.631 46.6381C149.868 46.6381 150.871 47.2433 151.312 48.0734V43.3956C151.312 43.2313 151.459 43.1016 151.623 43.1016H152.592C152.756 43.1016 152.886 43.2313 152.886 43.3956V54.325C152.886 54.4893 152.756 54.619 152.592 54.619H151.623C151.459 54.619 151.312 54.4893 151.312 54.325V53.3825C150.836 54.2212 149.876 54.8351 148.648 54.8351C146.556 54.8351 144.749 53.175 144.749 50.7366C144.749 48.2982 146.556 46.6381 148.631 46.6381ZM148.839 53.3911C150.292 53.3911 151.32 52.2238 151.32 50.7452C151.32 49.2667 150.283 48.108 148.839 48.108C147.395 48.108 146.357 49.2753 146.357 50.7452C146.357 52.2152 147.395 53.3911 148.839 53.3911Z" fill="#AF0000"/>
<path d="M158.454 46.8109C158.601 46.8109 158.765 46.8974 158.765 47.1395V48.1079C158.765 48.3586 158.584 48.4365 158.454 48.4365H158.126C157.01 48.4365 156.232 49.059 156.232 50.7279V54.3508C156.232 54.5151 156.085 54.6275 155.938 54.6275H154.952C154.788 54.6275 154.658 54.4978 154.658 54.3335V47.1741C154.658 46.9925 154.788 46.8628 154.952 46.8628H155.877C156.024 46.8628 156.171 46.9925 156.171 47.1568V48.1079C156.5 47.3989 157.244 46.8109 158.212 46.8109H158.463H158.454Z" fill="#AF0000"/>
<path d="M162.95 46.6294C164.169 46.6294 165.172 47.252 165.596 48.0907V47.1655C165.596 46.9839 165.743 46.8542 165.907 46.8542H166.876C167.04 46.8542 167.17 46.9839 167.17 47.1655V54.3249C167.17 54.4892 167.04 54.6189 166.876 54.6189H165.907C165.743 54.6189 165.596 54.4892 165.596 54.3249V53.3825C165.155 54.2212 164.161 54.8351 162.933 54.8351C160.84 54.8351 159.033 53.1749 159.033 50.7193C159.033 48.2636 160.84 46.6207 162.95 46.6207V46.6294ZM163.123 53.3911C164.558 53.3911 165.605 52.2065 165.605 50.7452C165.605 49.2839 164.55 48.108 163.123 48.108C161.696 48.108 160.641 49.258 160.641 50.7452C160.641 52.2324 161.679 53.3911 163.123 53.3911Z" fill="#AF0000"/>
<path d="M175.065 54.6448V53.3478C174.624 54.152 173.629 54.7486 172.419 54.7486C170.266 54.7486 168.484 53.1662 168.484 50.7192C168.484 48.2722 170.274 46.6553 172.367 46.6553C174.459 46.6553 174.624 47.2778 175.065 48.1166V47.1741C175.065 47.0098 175.194 46.8628 175.359 46.8628H176.327C176.509 46.8628 176.638 47.0098 176.638 47.1741V54.6967C176.638 56.8238 175.142 58.337 172.557 58.337C169.972 58.337 169.064 57.3339 168.709 55.8813C168.675 55.7516 168.744 55.6046 168.891 55.5873L169.911 55.3106C170.076 55.276 170.205 55.3279 170.257 55.4749C170.456 56.2358 171.182 56.9708 172.592 56.9708C174.001 56.9708 175.065 56.0196 175.065 54.6535V54.6448ZM172.574 53.3219C174.01 53.3219 175.047 52.1892 175.047 50.7019C175.047 49.2147 174.01 48.082 172.574 48.082C171.139 48.082 170.093 49.232 170.093 50.7019C170.093 52.1719 171.13 53.3219 172.574 53.3219Z" fill="#AF0000"/>
<path d="M182.008 46.6381C184.282 46.6381 186.089 48.4193 186.089 50.7366C186.089 53.0539 184.282 54.8351 182.008 54.8351C179.734 54.8351 177.927 53.0712 177.927 50.7366C177.927 48.402 179.734 46.6381 182.008 46.6381ZM182.008 53.3738C183.461 53.3738 184.489 52.2065 184.489 50.7366C184.489 49.2666 183.452 48.0994 182.008 48.0994C180.564 48.0994 179.526 49.2494 179.526 50.7366C179.526 52.2238 180.564 53.3738 182.008 53.3738Z" fill="#AF0000"/>
<path d="M193.447 50.4253C193.447 48.9726 192.66 48.0907 191.26 48.0907C189.859 48.0907 188.96 49.0418 188.96 50.4253V54.3423C188.96 54.5065 188.812 54.6189 188.666 54.6189H187.68C187.516 54.6189 187.386 54.4893 187.386 54.3249V47.1655C187.386 46.9839 187.516 46.8542 187.68 46.8542H188.666C188.812 46.8542 188.96 46.9839 188.96 47.1482V48.0042C189.4 47.2347 190.395 46.6381 191.692 46.6381C193.767 46.6381 195.03 48.0561 195.03 50.0103V54.3423C195.03 54.5065 194.882 54.6189 194.718 54.6189H193.767C193.603 54.6189 193.456 54.5065 193.456 54.3423V50.4253H193.447Z" fill="#AF0000"/>
<path d="M187.498 66.7503C187.818 66.4217 188.415 66.1882 189.193 66.1882C190.334 66.1882 191.458 66.733 192.305 67.3037C192.825 67.6582 193.205 67.6063 193.533 67.2258L194.407 66.1882C194.709 65.8337 194.761 65.4273 194.381 65.0988C193.533 64.3638 191.787 63.4386 189.279 63.4386C186.772 63.4386 184.204 64.9691 183.84 67.0356L187.507 66.7589L187.498 66.7503Z" fill="#AF0000"/>
<path d="M191.044 69.0502L188.891 68.6438C187.689 68.4277 187.231 67.9867 187.231 67.3641C187.231 66.7416 187.231 67.3122 187.231 67.2863L183.763 67.6062C183.763 67.6408 183.763 67.6754 183.763 67.7186C183.763 69.8196 185.129 71.1514 187.257 71.5922L189.358 72.0247C190.724 72.3014 191.459 72.5175 191.459 73.2786C191.459 74.0394 190.776 74.5841 189.358 74.5841C187.94 74.5841 186.876 73.9874 186.003 73.218C185.674 72.9413 185.294 72.7249 184.775 73.1401L183.763 73.9615C183.219 74.3939 183.167 75.0252 184.17 75.786C185.207 76.5728 186.893 77.3425 189.185 77.3425C192.652 77.3425 195.021 75.4574 195.021 72.924C195.021 70.3906 193.361 69.4913 191.044 69.0502Z" fill="#AF0000"/>
<path d="M172.539 67.8916C173.17 67.1653 174.087 66.7071 175.15 66.7071C176.214 66.7071 176.794 67.0097 177.39 67.5198L181.445 67.2085C180.278 64.9431 177.909 63.4299 175.15 63.4299C172.392 63.4299 169.366 65.3927 168.441 68.1943L172.539 67.883V67.8916Z" fill="#AF0000"/>
<path d="M177.953 68.1422C178.402 68.7648 178.661 69.5342 178.661 70.3816C178.661 72.4309 177.166 74.0653 175.142 74.0653C173.119 74.0653 171.623 72.4309 171.623 70.3816C171.623 68.3325 171.762 69.1973 172.004 68.687L168.208 69.0415C168.121 69.4826 168.078 69.9407 168.078 70.4075C168.078 74.3073 171.217 77.3338 175.142 77.3338C179.068 77.3338 182.207 74.3073 182.207 70.4075C182.207 66.508 182.025 68.5919 181.705 67.7877L177.953 68.1336V68.1422Z" fill="#AF0000"/>
<path d="M165.57 63.819H163.201C162.873 63.819 162.63 64.0611 162.63 64.3897V68.6438L166.15 68.3758V64.3897C166.15 64.0611 165.908 63.819 165.579 63.819H165.57Z" fill="#AF0000"/>
<path d="M164.394 61.96C165.536 61.96 166.47 61.0607 166.47 59.9107C166.47 58.7607 165.544 57.8615 164.394 57.8615C163.244 57.8615 162.319 58.7607 162.319 59.9107C162.319 61.0607 163.244 61.96 164.394 61.96Z" fill="#AF0000"/>
<path d="M162.622 69.5692V76.3913C162.622 76.6939 162.864 76.962 163.193 76.962H165.562C165.89 76.962 166.133 76.6853 166.133 76.3913V69.2406L162.613 69.5692H162.622Z" fill="#AF0000"/>
<path d="M149.522 69.6382C149.842 67.952 151.234 66.7069 152.998 66.7069C154.762 66.7069 155.834 67.7099 156.31 69.1281L160.01 68.8426V58.4147C160.01 58.1121 159.768 57.87 159.44 57.87H157.071C156.768 57.87 156.5 58.1121 156.5 58.4147V65.3667C155.843 64.2772 154.321 63.4298 152.436 63.4298C149.15 63.4298 146.141 65.9633 145.934 69.9148L149.539 69.6382H149.522Z" fill="#AF0000"/>
<path d="M156.509 70.1309C156.509 70.2175 156.517 70.2954 156.517 70.3819C156.517 72.4309 155.021 74.0913 152.998 74.0913C150.975 74.0913 149.66 72.6387 149.47 70.7795L145.942 71.1081C146.288 74.904 149.228 77.3338 152.479 77.3338C155.73 77.3338 155.748 76.4865 156.517 75.3449V76.4086C156.517 76.7112 156.759 76.9533 157.062 76.9533H159.431C159.76 76.9533 160.002 76.7112 160.002 76.4086V69.8026L156.5 70.1309H156.509Z" fill="#AF0000"/>
<path d="M134.451 70.7882V64.3378C134.451 64.0611 134.174 63.819 133.88 63.819H131.511C131.208 63.819 130.94 64.0611 130.94 64.3378V71.0562L134.46 70.7882H134.451Z" fill="#AF0000"/>
<path d="M143.945 70.0619V64.381C143.945 64.0524 143.703 63.8103 143.374 63.8103H140.97C140.694 63.8103 140.426 64.0524 140.426 64.3291V70.33L143.945 70.0619Z" fill="#AF0000"/>
<path d="M140.4 71.6268C140.245 73.2266 139.181 74.342 137.4 74.342C135.618 74.342 134.858 73.5033 134.555 72.1715L130.975 72.5001C131.26 75.4141 133.241 77.3425 136.336 77.3425C139.432 77.3425 139.605 76.5208 140.426 75.4054V76.4432C140.426 76.7459 140.703 76.9619 140.971 76.9619H143.375C143.703 76.9619 143.945 76.7199 143.945 76.4172V71.2982L140.409 71.6268H140.4Z" fill="#AF0000"/>
<path d="M119.587 66.7588H121.386V71.7826L124.905 71.5145V66.7588H128.727C129.03 66.7588 129.298 66.4821 129.298 66.1881V64.3896C129.298 64.061 129.021 63.8189 128.727 63.8189H124.905V60.1614C124.905 59.8328 124.663 59.5907 124.36 59.5907H121.956C121.628 59.5907 121.386 59.8328 121.386 60.1614V63.8189H119.587C119.285 63.8189 119.042 64.061 119.042 64.3896V66.1881C119.042 66.4908 119.285 66.7588 119.587 66.7588Z" fill="#AF0000"/>
<path d="M128.727 73.6848C128.485 73.3303 128.07 73.3303 127.663 73.5723C127.196 73.875 126.738 73.9788 126.409 73.9788C125.925 73.9788 125.294 73.7627 125.035 73.0449L121.412 73.3822C121.559 76.106 123.66 77.23 125.761 77.23C127.862 77.23 128.623 76.7629 129.47 75.9242C129.713 75.6822 129.773 75.3536 129.548 75.025L128.727 73.6848Z" fill="#AF0000"/>
<path d="M114.486 74.0307C114.157 74.3593 113.569 74.5841 112.722 74.5841C111.33 74.5841 110.241 73.9874 109.367 73.218C109.039 72.9413 108.658 72.7249 108.139 73.1401L107.128 73.9615C106.583 74.3939 106.531 75.0252 107.534 75.786C108.572 76.5727 110.258 77.3425 112.549 77.3425C114.841 77.3425 117.884 75.8206 118.308 73.6761L114.477 74.0307H114.486Z" fill="#AF0000"/>
<path d="M110.62 71.5839L112.722 72.016C113.24 72.1199 113.664 72.2151 114.002 72.336L118.299 72.0074C117.918 70.2608 116.414 69.4134 114.416 69.0415L112.264 68.6352C111.062 68.4191 110.603 67.9781 110.603 67.3555C110.603 66.733 111.364 66.1796 112.566 66.1796C113.768 66.1796 114.832 66.7243 115.679 67.295C116.198 67.6495 116.578 67.5976 116.907 67.2172L117.78 66.1796C118.083 65.8251 118.134 65.4187 117.754 65.0901C116.907 64.3552 115.16 63.4299 112.652 63.4299C110.145 63.4299 107.145 65.3149 107.145 67.7101C107.145 70.1053 108.511 71.1427 110.638 71.5839H110.62Z" fill="#AF0000"/>
<path d="M103.228 60.1182C103.228 72.336 93.3274 82.2365 81.1096 82.2365C68.8918 82.2365 59.0259 72.3533 59 60.1614C59.2594 62.1415 61.3951 63.672 63.0553 64.4502C64.8884 65.3149 66.9117 65.6435 68.7448 66.4908C72.2381 68.1078 74.1144 71.6009 73.8896 75.3192C73.8723 75.5613 74.2095 75.6389 74.296 75.4141C75.299 72.8548 75.4719 69.9322 74.5381 67.3296C73.6561 64.8998 71.7625 63.1446 69.6008 61.8216C67.4305 60.4987 64.7154 59.7637 63.0207 57.7836C61.2222 55.6738 60.8936 52.5524 61.741 49.9757C62.035 49.1023 62.4414 48.2723 62.9429 47.5027C63.9113 46.1106 65.0354 44.8309 66.2978 43.6982C65.8568 45.0903 65.7963 46.6726 66.0989 48.1253C66.1422 48.3414 66.4621 48.3414 66.5053 48.1253C67.8283 42.0639 74.5208 38.2767 80.4524 38.0173C80.6772 38.0173 80.8934 38 81.1182 38C93.336 38 103.236 47.9004 103.236 60.1182H103.228ZM87.119 80.5158C95.9387 77.9219 102.38 69.768 102.38 60.1096C102.38 50.4512 93.2581 39.2711 81.8618 38.8647C77.6423 38.7177 74.9358 42.4012 74.9358 45.8339C74.9358 52.1546 80.1498 53.3738 84.9746 55.7084C89.2288 57.7577 92.9728 61.8821 92.9728 68.0386C92.9728 74.1949 88.5111 79.3572 87.1104 80.5158H87.119Z" fill="#AF0000"/>
</g>
</svg>
