<svg width="254" height="120" viewBox="0 0 254 120" fill="none" xmlns="http://www.w3.org/2000/svg">
<path d="M197.535 73.5426L196.717 71.9076V58.8581L202.45 73.5426H209L208.182 71.9076V47.8675L209 46.2325H201.905L202.722 47.8675V60.9271L196.99 46.2426H190.44L191.257 47.8776V71.9177L190.44 73.5527H197.535V73.5426Z" fill="black"/>
<path d="M172.667 51.7025H178.672V68.0825H172.667V51.7025ZM180.317 73.5526L184.142 69.7276V50.0676L180.317 46.2426H171.032L167.207 50.0676V69.7276L171.032 73.5526H180.317Z" fill="black"/>
<path d="M156.277 73.5425L155.46 71.9076V51.6925H159.83L161.465 52.51V46.2224H144.005V52.51L145.64 51.6925H150V71.9076L149.182 73.5425H156.277Z" fill="black"/>
<path d="M129.22 73.5425L128.402 71.9076V62.673H133.862L135.497 63.4905V56.3855L133.862 57.213H128.402V51.6925H136.597L138.232 52.51V46.2224H122.125L122.942 47.8574V71.8975L122.125 73.5324L129.22 73.5425Z" fill="black"/>
<path d="M102.656 63.6218L105.018 54.5487L107.38 63.6218H102.656ZM115.938 73.5426L115.242 72.0388L108.783 47.8171L109.378 46.2325H100.638L101.233 47.8171L94.7743 72.0388L94.0779 73.5426H100.9L100.587 71.5241L101.284 68.8597H108.722L109.418 71.5241L109.105 73.5426H115.938Z" fill="black"/>
<path d="M76.9106 51.7026H82.3706V60.0894H76.9106V51.7026ZM70.623 46.2426L71.4405 47.8776V71.9177L70.623 73.5527H77.718L76.9005 71.9177V65.5494H78.8181L81.109 71.7865L80.998 73.5527H88.3756L86.9324 71.4635L84.4698 65.0952L87.8407 61.7244V50.0576L84.0157 46.2325L70.623 46.2426Z" fill="black"/>
<path d="M64.9109 73.5426L63.2457 71.4434L56.8572 58.5856L62.7612 47.918L64.0833 46.2426H56.9783L57.059 47.5446L52.1945 56.5571H51.2458V47.8675L52.0633 46.2325H44.9583L45.7757 47.8675V71.9076L44.9583 73.5426H52.0633L51.2458 71.9076V62.007H52.144L57.0792 72.2003L56.9985 73.5426H64.9109Z" fill="black"/>
</svg>
