<svg width="254" height="120" viewBox="0 0 254 120" fill="none" xmlns="http://www.w3.org/2000/svg">
<path fill-rule="evenodd" clip-rule="evenodd" d="M93 60C93 41.7737 107.998 27 126.5 27C145.002 27 160 41.7737 160 60C160 78.2263 145.002 93 126.5 93C107.998 93 93 78.2263 93 60ZM131.783 74.7036L135.07 78.3459C143.26 74.5365 145.83 67.4951 146.409 64.752C143.413 67.7736 140.101 70.8364 137.871 68.7161C137.871 68.7161 137.75 57.4033 137.75 52.7627C137.75 46.5216 143.755 41.8727 143.755 41.8727C140.453 42.4522 136.485 43.6114 132.277 47.6807C131.896 48.052 131.536 48.4424 131.196 48.8501C129.391 47.4889 127.053 47.8993 127.053 47.8993C128.317 48.582 129.58 50.5744 129.58 52.2223V68.4232C129.58 68.4232 126.825 70.8096 124.701 70.8096C124.223 70.814 123.75 70.7053 123.322 70.4925C122.895 70.2796 122.526 69.969 122.246 69.5865C122.077 69.3697 121.938 69.1327 121.831 68.8811V48.8625C121.203 49.374 119.082 49.7947 119.082 46.3256C119.082 44.1703 120.661 41.6025 123.466 40.0267C119.612 40.6056 116.003 42.2458 113.054 44.7581C110.814 46.6654 109.023 49.0303 107.804 51.6884C106.586 54.3465 105.969 57.2341 105.998 60.1506C105.998 60.1506 108.052 53.8331 110.621 53.2515C110.995 53.1541 111.388 53.1444 111.767 53.223C112.146 53.3017 112.501 53.4665 112.803 53.7044C113.106 53.9423 113.348 54.2466 113.51 54.593C113.672 54.9395 113.75 55.3185 113.736 55.6997V70.5353C113.736 72.0388 112.752 72.3667 111.844 72.3503C111.227 72.308 110.618 72.1945 110.028 72.012C111.905 74.5152 114.344 76.5568 117.155 77.9773C119.965 79.3977 123.071 80.1585 126.23 80.2001L131.783 74.7036Z" fill="black"/>
</svg>
