<svg width="254" height="120" viewBox="0 0 254 120" fill="none" xmlns="http://www.w3.org/2000/svg">
<path fill-rule="evenodd" clip-rule="evenodd" d="M206.839 46.9892V52.2513C204.324 51.2219 202.086 50.7027 200.126 50.7027C198.966 50.7027 198.042 50.9367 197.347 51.3865C196.652 51.8399 196.298 52.3994 196.298 53.0595C196.298 53.9371 197.082 54.7179 198.662 55.4163L203.226 57.8243C206.916 59.7314 208.746 62.2637 208.746 65.4433C208.746 68.0872 207.775 70.1972 205.817 71.7568C203.872 73.3329 201.253 74.1136 197.993 74.1136C196.488 74.1136 195.137 74.0442 193.938 73.8961C192.739 73.7553 191.359 73.4682 189.83 73.0568V67.5496C192.634 68.579 195.188 69.0983 197.488 69.0983C200.232 69.0983 201.597 68.2353 201.597 66.4965C201.597 65.6316 201.039 64.9314 199.904 64.3847L194.835 62.0425C192.965 61.1264 191.575 60.0148 190.666 58.6983C189.771 57.3709 189.315 55.8478 189.315 54.109C189.315 51.6736 190.261 49.7135 192.13 48.2215C194.014 46.7423 196.515 46 199.624 46C200.634 46 201.798 46.0969 203.088 46.2761C204.388 46.4662 205.638 46.7003 206.842 46.9873L206.839 46.9892ZM63.2841 46.9892V52.2513C60.7694 51.2219 58.5347 50.7027 56.5749 50.7027C55.4112 50.7027 54.4903 50.9367 53.7954 51.3865C53.1006 51.8399 52.7464 52.3994 52.7464 53.0595C52.7464 53.9371 53.5425 54.7179 55.1211 55.4163L59.685 57.8243C63.36 59.7314 65.195 62.2637 65.195 65.4433C65.195 68.0872 64.2202 70.1972 62.2755 71.7568C60.3157 73.3329 57.7117 74.1136 54.4414 74.1136C52.937 74.1136 51.5827 74.0442 50.3835 73.8961C49.1843 73.7553 47.8182 73.4682 46.2784 73.0568V67.5496C49.0933 68.579 51.6484 69.0983 53.9337 69.0983C56.6778 69.0983 58.0422 68.2353 58.0422 66.4965C58.0422 65.6316 57.4874 64.9314 56.3624 64.3847L51.2942 62.0425C49.4103 61.1264 48.0206 60.0148 47.125 58.6983C46.2109 57.3745 45.7673 55.8515 45.7673 54.1127C45.7673 51.6772 46.7068 49.7153 48.5856 48.2252C50.456 46.746 52.9606 46.0037 56.0689 46.0037C57.0893 46.0037 58.2396 46.1006 59.5433 46.2797C60.8335 46.4699 62.0833 46.7039 63.2824 46.991L63.2841 46.9892ZM75.9469 46.4973V73.6218H68.5142V46.4973H75.9469ZM100.117 73.6218H81.6948V46.4973H99.8913V51.5108H88.8476V57.5263H98.4256V62.0461H88.8476V68.3615H100.117V73.6236V73.6218ZM104.226 73.6218V46.4973H113.3L119.493 63.1029L125.972 46.4973H134.591V73.6218H127.652V55.7308L120.452 73.8686H116.168L109.245 55.7308V73.6218H104.226ZM158.753 73.6218H140.33V46.4973H158.527V51.5108H147.544V57.5263H157.122V62.0461H147.544V68.3615H158.753V73.6236V73.6218ZM184.608 73.6218H176.725L167.877 56.2245V73.6218H162.861V46.4973H170.975L179.594 63.5948V46.4973H184.608V73.6218Z" fill="#047970"/>
</svg>
