<svg width="254" height="120" viewBox="0 0 254 120" fill="none" xmlns="http://www.w3.org/2000/svg">
<path d="M127.455 48.7348C118.967 45.3893 110.393 45.746 108.222 49.6649C106.023 53.6109 109.219 62.9612 115.256 70.7223C121.288 78.4788 129.816 78.226 134.521 69.7561C139.148 61.3042 135.92 52.0668 127.455 48.7348Z" fill="#FF9700"/>
<path d="M84.2928 51.4392C91.8236 56.5817 100.257 58.1393 103.246 54.8028C106.262 51.4392 105.219 41.6194 101.061 32.7115C96.9028 23.8127 88.5367 22.1693 82.0669 29.3841C75.6829 36.5898 76.78 46.3103 84.2928 51.4392Z" fill="#006ECD"/>
<path d="M111.283 78.5105C110.077 69.4717 105.594 62.1531 101.115 62.1576C96.5957 62.1622 89.9814 69.5033 86.1347 78.5511C82.2926 87.5944 86.663 94.922 96.3519 94.913C105.987 94.8498 112.488 87.5312 111.283 78.5105Z" fill="#EF151E"/>
<path d="M76.9065 55.006C75.3714 55.006 74.3375 55.9496 74.3375 57.3627V58.7804H77.9855C77.9855 58.7804 78.1075 70.8171 77.9675 72.0767C77.8321 73.3409 77.5115 75.3906 75.2541 76.4697C73.3082 77.3953 73.2675 78.2756 73.1456 79.0567C72.9831 80.0726 73.1727 80.199 73.9087 80.0184C76.8117 79.3095 79.8954 78.1447 81.4575 75.2778C82.3018 73.7246 82.6404 72.0361 82.6404 69.4807V58.7804C84.189 58.7624 85.3042 57.7736 85.3042 56.4237V55.006H76.9065Z" fill="black"/>
<path d="M72.8518 71.237C72.8518 71.237 69.9216 75.4313 64.2374 75.4313C58.3771 75.4313 53.957 70.9435 53.957 64.9884C53.957 58.9565 58.3771 54.4055 64.2374 54.4055C69.8223 54.4055 72.775 58.5998 72.775 58.5998C72.775 58.5998 71.2129 60.2749 69.7139 60.2749C68.978 60.2749 68.4317 59.9362 67.7996 59.548C66.9508 59.0242 65.9937 58.4283 64.2374 58.4283C60.9054 58.4283 58.192 61.372 58.192 64.9884C58.192 68.5326 60.9054 71.4085 64.2374 71.4085C66.2194 71.4085 67.1495 70.8442 67.9667 70.343C68.5536 69.9864 69.1044 69.6522 69.8991 69.6522C71.5876 69.6522 72.8518 71.237 72.8518 71.237Z" fill="black"/>
<path d="M200 55.006V72.8172C199.995 74.1174 199.02 74.8082 197.652 74.8082H195.846V62.7445L192.546 73.5441C192.261 74.4154 191.196 74.8082 190.117 74.8172H189.277L185.2 62.7445V72.7991C185.2 74.1084 184.238 74.8082 182.852 74.8082H181.037V57.0151C181.037 55.7058 182.004 55.006 183.381 55.006H186.351L190.64 68.1397L194.51 56.2566C194.817 55.4394 195.62 55.006 196.718 55.006H200Z" fill="black"/>
<path d="M155.425 58.7172C156.468 58.7172 157.343 57.8413 157.343 56.7984V55.006H143.817C142.778 55.006 141.894 55.918 141.894 56.9248V74.8172H155.425C156.468 74.8172 157.343 73.684 157.343 72.6411V71.0789H147.971C146.417 71.0789 146.16 71.8419 146.16 71.8419V66.6679H154.982C156.021 66.6679 156.901 65.792 156.901 64.7446V62.9341H147.971C146.417 62.9341 146.16 63.6971 146.16 63.6971V58.7172H155.425Z" fill="black"/>
<path d="M174.924 55.006C173.967 55.006 173.403 55.9767 173.403 56.9248V67.2639L164.111 55.006H162.283C161.325 55.006 160.504 55.918 160.504 56.9248V74.8172H162.888C163.845 74.8172 164.662 73.8782 164.662 72.8984V61.548L174.54 74.8172H175.787C176.744 74.8172 177.565 73.9052 177.565 72.8984V55.006H174.924Z" fill="black"/>
</svg>
