<svg width="254" height="120" viewBox="0 0 254 120" fill="none" xmlns="http://www.w3.org/2000/svg">
<path d="M151.328 25.2152C155.359 25.2152 156.833 26.6822 156.837 30.6551V79.1057C156.837 79.7277 156.72 80.8507 156.519 81.33C156.356 81.7891 156.094 82.2064 155.751 82.5519C155.359 82.914 154.69 83.2908 154.368 83.4372L128.295 94.4121C127.801 94.6199 127.271 94.7269 126.735 94.7269C126.199 94.7269 125.668 94.6199 125.174 94.4121L99.1017 83.4372C98.6038 83.2056 98.1389 82.9092 97.7188 82.5555C97.3751 82.209 97.1127 81.7904 96.9506 81.33C96.7494 80.8507 96.636 79.7277 96.636 79.1057V30.6515C96.636 26.6785 98.1103 25.2115 102.142 25.2115L151.328 25.2152ZM116.943 83.6933C116.905 83.7101 116.872 83.7377 116.848 83.7727C116.825 83.8077 116.812 83.8487 116.812 83.8908C116.812 83.9201 116.818 83.9469 116.83 83.9713C116.851 84.0234 116.892 84.0653 116.943 84.0884L126.382 88.0869C126.486 88.1317 126.599 88.1548 126.713 88.1548C126.827 88.1548 126.939 88.1317 127.044 88.0869L136.555 84.0884L136.629 84.0408L136.673 83.9749L136.691 83.8908L136.673 83.8103L136.625 83.7408L136.555 83.6933L136.475 83.675H117.027L116.943 83.6933ZM109.539 66.8102C108.907 66.8102 108.322 66.9175 107.783 67.1321C106.747 67.5407 105.916 68.3432 105.471 69.3637C105.249 69.871 105.138 70.4197 105.138 71.0099V71.0319C105.138 71.6416 105.25 72.2025 105.474 72.7147C105.701 73.2268 106.012 73.6658 106.407 74.0317C106.807 74.4024 107.277 74.6914 107.816 74.8987C108.357 75.106 108.947 75.2096 109.586 75.2096C110.333 75.2096 111.003 75.0901 111.598 74.8511C112.184 74.6121 112.696 74.3158 113.135 73.9622V70.3258H109.374V71.972H110.984V72.9488C110.591 73.1867 110.137 73.3037 109.678 73.2854C109.383 73.2929 109.089 73.2407 108.814 73.132C108.539 73.0232 108.289 72.8601 108.079 72.6525C107.881 72.4491 107.725 72.2094 107.618 71.9464C107.511 71.6574 107.456 71.3513 107.457 71.0428V71.0209C107.453 70.4391 107.668 69.8772 108.061 69.4478C108.253 69.2469 108.483 69.0864 108.738 68.9759C108.994 68.8653 109.268 68.8068 109.546 68.8039C109.951 68.8039 110.308 68.8698 110.618 69.0015C110.945 69.1442 111.25 69.334 111.522 69.5649L112.85 67.9845C112.411 67.6162 111.931 67.3284 111.412 67.1211C110.811 66.9012 110.175 66.7957 109.535 66.8102M144.783 66.8285C144.334 66.8238 143.888 66.888 143.459 67.0187C143.095 67.1315 142.757 67.3142 142.464 67.5565C142.189 67.7801 141.969 68.0642 141.822 68.3865C141.675 68.7088 141.604 69.0607 141.615 69.4149V69.4405C141.615 69.8551 141.695 70.2026 141.856 70.4831C142.015 70.7636 142.232 70.9977 142.508 71.1855C142.786 71.3757 143.111 71.5294 143.484 71.6465C143.857 71.7684 144.262 71.8781 144.699 71.9757C144.979 72.0367 145.207 72.0976 145.383 72.1586C145.529 72.2024 145.67 72.2612 145.804 72.3342C145.889 72.3802 145.962 72.4468 146.016 72.5281C146.055 72.5915 146.076 72.6647 146.078 72.7476V72.7732C146.082 72.8571 146.061 72.9403 146.019 73.0129C145.977 73.0855 145.915 73.1445 145.84 73.1829C145.624 73.2881 145.385 73.3383 145.145 73.3293C144.194 73.3293 143.31 73.0061 142.493 72.3598L141.234 73.8451C141.739 74.2914 142.32 74.6268 142.976 74.8511C143.634 75.0731 144.329 75.184 145.061 75.184C145.559 75.184 146.01 75.1243 146.415 75.0048C146.793 74.9043 147.148 74.7289 147.457 74.489C147.737 74.2636 147.966 73.9819 148.13 73.6622C148.292 73.314 148.373 72.9339 148.368 72.5501V72.5318C148.374 72.193 148.301 71.8574 148.156 71.5513C148.016 71.2715 147.807 71.0322 147.549 70.8563C147.254 70.6462 146.93 70.481 146.587 70.366C146.171 70.2224 145.747 70.1039 145.317 70.0112C145.083 69.9628 144.851 69.903 144.622 69.8319C144.476 69.7837 144.333 69.7262 144.194 69.66C144.105 69.6176 144.028 69.5534 143.971 69.4734C143.925 69.4 143.902 69.3147 143.905 69.2283V69.2027C143.907 69.0564 143.976 68.9344 144.11 68.8369C144.296 68.7276 144.509 68.6755 144.724 68.6869C145.09 68.6869 145.468 68.7552 145.859 68.8917C146.254 69.0259 146.638 69.2234 147.011 69.4844L148.145 67.904C147.7 67.5485 147.194 67.2759 146.652 67.0992C146.104 66.9163 145.48 66.826 144.783 66.8285ZM113.852 75.0377H116.237L116.823 73.5963H119.972L120.569 75.0377H123.001L119.515 66.9016H117.335L113.852 75.0377ZM123.792 75.0377H126.012V70.4209L128.09 73.5597H128.138L130.227 70.399V75.0377H132.48V66.9565H130.088L128.138 70.0844L126.188 66.9565H123.792V75.0377ZM133.998 75.0377H140.627V73.1354H136.237V71.855H140.163V70.0917H136.237V68.8661H140.569V66.9638H133.995L133.998 75.0377ZM119.321 71.855H117.485L118.407 69.5576L119.321 71.855ZM141.169 33.7025C137.825 33.7025 136.168 35.3414 136.168 38.6522V55.8645C136.168 59.1789 137.825 60.8105 141.172 60.8105H143.21C146.557 60.8105 148.211 59.1753 148.211 55.8645V49.66H144.172V55.6706C144.172 56.7388 143.671 57.2327 142.636 57.2327H141.864C140.788 57.2327 140.291 56.7388 140.291 55.6706V38.8424C140.291 37.7815 140.784 37.284 141.864 37.284H142.559C143.594 37.284 144.095 37.7778 144.095 38.8461V44.0555H148.134V38.6156C148.134 35.3048 146.517 33.7025 143.17 33.7025H141.169ZM105.332 60.591H114.565V56.8961H109.447V48.8589H114.298V45.164H109.447V37.6278H114.489V33.933H105.332V60.591ZM116.555 60.591H120.671V50.9148H123.016C126.363 50.9148 128.021 49.2759 128.021 45.9651V38.8826C128.021 35.5682 126.363 33.933 123.016 33.933H116.555V60.591ZM129.875 60.5874H133.991V33.933H129.879L129.875 60.5874ZM122.365 37.5144C123.4 37.5144 123.901 38.0083 123.901 39.0765V45.7749C123.901 46.8395 123.404 47.337 122.365 47.337H120.671V37.5071L122.365 37.5144Z" fill="black"/>
</svg>
