<svg width="254" height="120" viewBox="0 0 254 120" fill="none" xmlns="http://www.w3.org/2000/svg">
<g clip-path="url(#clip0_108_347)">
<path d="M111.87 48.5985V71.629H107.872V53.5565H107.818L100.675 71.629H98.0091L90.7054 53.5565H90.6521V71.629H86.9736V48.5985H92.7313L99.3419 65.6582H99.4485L106.432 48.5985H111.87ZM115.175 50.3578C115.175 49.7181 115.389 49.185 115.868 48.7585C116.348 48.332 116.881 48.1187 117.521 48.1187C118.214 48.1187 118.801 48.332 119.227 48.7585C119.653 49.185 119.92 49.7181 119.92 50.3578C119.92 50.9976 119.707 51.5307 119.227 51.9572C118.747 52.3836 118.214 52.5969 117.521 52.5969C116.828 52.5969 116.295 52.3836 115.868 51.9572C115.442 51.4774 115.175 50.9442 115.175 50.3578ZM119.494 55.1025V71.629H115.602V55.1025H119.494ZM131.275 68.8035C131.862 68.8035 132.502 68.6969 133.195 68.377C133.888 68.1105 134.527 67.7373 135.114 67.3108V70.936C134.474 71.3092 133.781 71.5757 132.981 71.7357C132.182 71.8956 131.329 72.0022 130.369 72.0022C127.917 72.0022 125.944 71.2559 124.452 69.7098C122.905 68.1638 122.159 66.1913 122.159 63.8456C122.159 61.18 122.959 58.9943 124.505 57.2883C126.051 55.5823 128.237 54.7293 131.115 54.7293C131.862 54.7293 132.608 54.836 133.301 54.9959C134.048 55.1558 134.634 55.4224 135.06 55.6356V59.3674C134.474 58.9409 133.834 58.5678 133.248 58.3545C132.608 58.1413 131.968 57.9813 131.329 57.9813C129.783 57.9813 128.556 58.4611 127.597 59.4741C126.637 60.487 126.211 61.8198 126.211 63.5257C126.211 65.1784 126.691 66.5112 127.597 67.4174C128.503 68.3237 129.729 68.8035 131.275 68.8035ZM146.149 54.836C146.469 54.836 146.736 54.836 147.002 54.8893C147.269 54.9426 147.482 54.9959 147.642 55.0492V58.9943C147.429 58.8343 147.162 58.6744 146.736 58.5678C146.309 58.4611 145.883 58.3545 145.296 58.3545C144.337 58.3545 143.537 58.781 142.897 59.5807C142.257 60.3803 141.884 61.6065 141.884 63.3125V71.629H137.993V55.1025H141.884V57.7148H141.938C142.311 56.8085 142.844 56.1154 143.537 55.5823C144.283 55.1025 145.136 54.836 146.149 54.836ZM147.855 63.6323C147.855 60.9135 148.655 58.7277 150.148 57.1284C151.694 55.529 153.826 54.7293 156.545 54.7293C159.104 54.7293 161.13 55.4757 162.569 57.0217C164.009 58.5678 164.755 60.6469 164.755 63.2592C164.755 65.9247 163.955 68.0572 162.462 69.6565C160.916 71.2559 158.837 72.0555 156.172 72.0555C153.613 72.0555 151.587 71.3092 150.094 69.8165C148.602 68.2704 147.855 66.1913 147.855 63.6323ZM151.907 63.4724C151.907 65.1784 152.28 66.5112 153.08 67.4174C153.879 68.3237 154.999 68.8035 156.438 68.8035C157.824 68.8035 158.944 68.377 159.69 67.4174C160.437 66.5112 160.81 65.1784 160.81 63.3658C160.81 61.6065 160.437 60.2737 159.69 59.3141C158.944 58.4078 157.824 57.928 156.492 57.928C155.052 57.928 153.986 58.4078 153.186 59.3674C152.28 60.3803 151.907 61.7131 151.907 63.4724ZM170.566 59.4741C170.566 60.0072 170.726 60.487 171.099 60.8068C171.472 61.1267 172.218 61.4999 173.445 61.9797C174.991 62.6194 176.11 63.3125 176.697 64.0588C177.336 64.8585 177.656 65.7648 177.656 66.8843C177.656 68.4304 177.07 69.6565 175.844 70.6161C174.671 71.5757 173.018 72.0022 170.992 72.0022C170.299 72.0022 169.553 71.8956 168.7 71.7357C167.847 71.5757 167.154 71.3625 166.567 71.0959V67.2575C167.261 67.7373 168.06 68.1638 168.86 68.4304C169.66 68.6969 170.406 68.8569 171.099 68.8569C171.952 68.8569 172.645 68.7502 173.018 68.4837C173.445 68.2171 173.658 67.8439 173.658 67.2575C173.658 66.7244 173.445 66.2979 173.018 65.8714C172.592 65.4982 171.739 65.0717 170.566 64.5919C169.126 64.0055 168.113 63.3125 167.527 62.5661C166.941 61.8198 166.621 60.8601 166.621 59.6873C166.621 58.1946 167.207 56.9684 168.38 56.0088C169.553 55.0492 171.099 54.5694 172.965 54.5694C173.551 54.5694 174.191 54.6227 174.884 54.7827C175.577 54.9426 176.217 55.1025 176.697 55.2625V59.0476C176.164 58.7277 175.577 58.4078 174.884 58.1413C174.191 57.8747 173.498 57.7681 172.858 57.7681C172.112 57.7681 171.525 57.928 171.152 58.1946C170.779 58.5678 170.566 58.9409 170.566 59.4741ZM179.309 63.6323C179.309 60.9135 180.109 58.7277 181.601 57.1284C183.147 55.529 185.28 54.7293 187.999 54.7293C190.558 54.7293 192.583 55.4757 194.023 57.0217C195.462 58.5678 196.209 60.6469 196.209 63.2592C196.209 65.9247 195.409 68.0572 193.916 69.6565C192.37 71.2559 190.291 72.0555 187.625 72.0555C185.067 72.0555 183.041 71.3092 181.548 69.8165C180.109 68.2704 179.309 66.1913 179.309 63.6323ZM183.361 63.4724C183.361 65.1784 183.734 66.5112 184.533 67.4174C185.333 68.3237 186.453 68.8035 187.892 68.8035C189.278 68.8035 190.398 68.377 191.144 67.4174C191.89 66.5112 192.264 65.1784 192.264 63.3658C192.264 61.6065 191.89 60.2737 191.144 59.3141C190.398 58.4078 189.278 57.928 187.945 57.928C186.506 57.928 185.44 58.4078 184.64 59.3674C183.787 60.3803 183.361 61.7131 183.361 63.4724ZM209.163 58.3012H203.352V71.629H199.407V58.3012H196.635V55.1025H199.407V52.8101C199.407 51.1042 199.994 49.6648 201.113 48.5452C202.233 47.4257 203.672 46.8926 205.431 46.8926C205.911 46.8926 206.338 46.9459 206.711 46.9459C207.084 46.9459 207.404 47.0525 207.671 47.1591V50.5177C207.564 50.4644 207.297 50.3578 206.977 50.2512C206.658 50.1446 206.284 50.0913 205.858 50.0913C205.058 50.0913 204.419 50.3578 203.992 50.8376C203.566 51.3174 203.352 52.1171 203.352 53.0767V55.0492H209.163V51.3174L213.055 50.1446V55.0492H217V58.2479H213.055V65.978C213.055 66.991 213.268 67.684 213.588 68.1105C213.961 68.537 214.548 68.7502 215.347 68.7502C215.561 68.7502 215.827 68.6969 216.147 68.5903C216.467 68.4837 216.733 68.377 216.947 68.2171V71.4158C216.68 71.5757 216.307 71.6824 215.721 71.789C215.134 71.8956 214.601 71.9489 214.015 71.9489C212.362 71.9489 211.136 71.5224 210.336 70.6694C209.536 69.8165 209.11 68.4837 209.11 66.7244L209.163 58.3012Z" fill="#737373"/>
<path d="M55.2535 40.9218H37.021V59.1542H55.2535V40.9218Z" fill="#F25022"/>
<path d="M75.4048 40.9218H57.1724V59.1542H75.4048V40.9218Z" fill="#7FBA00"/>
<path d="M55.2535 61.0735H37.021V79.306H55.2535V61.0735Z" fill="#00A4EF"/>
<path d="M75.4048 61.0735H57.1724V79.306H75.4048V61.0735Z" fill="#FFB900"/>
</g>
<defs>
<clipPath id="clip0_108_347">
<rect width="179.979" height="38.3842" fill="white" transform="translate(37.021 40.9218)"/>
</clipPath>
</defs>
</svg>
