<svg width="254" height="120" viewBox="0 0 254 120" fill="none" xmlns="http://www.w3.org/2000/svg">
<path d="M94.0939 80.3125H76.2539V82.2525H83.9539V86.4725H87.0639V82.2525H94.0939V80.3125Z" fill="black"/>
<path d="M57.0641 81.0025L56.1641 79.2525C60.5241 78.1025 62.6541 75.5325 62.6541 72.6725V72.1525H56.7641V70.2125H64.6641C65.3541 70.2125 65.8941 70.7725 65.8941 71.4625C65.9041 73.9825 65.4141 79.1025 57.0641 81.0025Z" fill="black"/>
<path d="M154.214 91.4025C154.874 91.4025 155.414 90.8525 155.424 90.1925V82.5425H152.314V84.8725H144.514V82.5425H141.404V90.1925C141.424 90.8525 141.954 91.4025 142.634 91.4025H154.214ZM144.514 86.8325H152.314V89.4525H144.514V86.8325Z" fill="black"/>
<path d="M182.254 84.9325H193.354V91.3925H196.464V84.1925C196.434 83.5225 195.894 82.9825 195.214 82.9825V82.9625H182.254V84.9325Z" fill="black"/>
<path d="M81.3437 72.1625H89.2537V76.5525H81.3437V72.1625ZM92.3536 70.2125H78.2236V77.3225C78.2636 77.9625 78.7737 78.4625 79.3737 78.4825H91.1936C91.8336 78.4625 92.3437 77.9225 92.3437 77.2425V70.2125H92.3536Z" fill="black"/>
<path d="M74.6937 73.7325H71.9337V69.5825H68.8237V80.9925H71.9337V75.6825H74.6937V73.7325Z" fill="black"/>
<path d="M199.174 73.7325H196.444V69.5825H193.334V80.9925H196.444V75.6825H199.174V73.7325Z" fill="black"/>
<path d="M136.974 75.1625H134.234V69.5825H131.124V84.3625H134.234V77.1125H136.974V75.1625Z" fill="black"/>
<path d="M173.494 69.5825V75.5425H172.014V69.5825H168.904V80.2825H162.634V72.1825H167.154V70.2225H160.764C160.104 70.2225 159.564 70.7725 159.524 71.4325V81.0125C159.564 81.6825 160.104 82.2125 160.764 82.2125V82.2225H168.904V91.3825H172.014V77.4725H173.494V91.3825H176.604V69.5625H173.494V69.5825Z" fill="black"/>
<path d="M81.0939 89.4525V84.0825H77.9639V90.2025C78.0039 90.8625 78.5338 91.4125 79.1938 91.4125H92.8439V89.4525H81.0939Z" fill="black"/>
<path d="M123.314 89.4525V84.0825H120.234V90.2025C120.254 90.8625 120.804 91.4125 121.464 91.4125H134.234V89.4525H123.314Z" fill="black"/>
<path d="M113.264 75.7726V69.5826H110.154V83.1425H104.374V80.9225C106.504 80.3225 108.094 78.5225 108.094 76.3825C108.094 75.0625 107.484 73.8325 106.464 72.9725H108.534V71.0125H104.354V68.6226H101.244V71.0125H97.0637V72.9725H99.1437C98.1537 73.8325 97.5037 75.0525 97.5037 76.3825C97.5037 78.5125 99.0837 80.3225 101.264 80.9225V83.1425H96.5537V85.0926H110.154V91.3925H113.264V77.7225H115.994V75.7625H113.264V75.7726ZM100.454 76.3925C100.454 74.8525 101.524 73.6226 102.814 73.6226C104.124 73.6226 105.174 74.8525 105.174 76.3925C105.174 77.9425 104.134 79.1826 102.814 79.1826C101.524 79.1826 100.454 77.9425 100.454 76.3925Z" fill="black"/>
<path d="M191.494 70.7526H187.324V68.6626H184.214V70.7526H180.014V72.7026H182.264C181.174 73.5626 180.484 74.8326 180.484 76.2526C180.484 78.8526 182.834 80.9926 185.764 80.9926C188.684 80.9926 191.044 78.8526 191.044 76.2526C191.044 74.8326 190.344 73.5626 189.244 72.7026H191.494V70.7526ZM185.774 79.0426C184.464 79.0426 183.414 77.8026 183.414 76.2526C183.414 74.7226 184.464 73.4826 185.774 73.4826C187.064 73.4826 188.134 74.7226 188.134 76.2526C188.134 77.8026 187.054 79.0426 185.774 79.0426Z" fill="black"/>
<path d="M49.4641 69.5825V74.0625H46.4341V76.0025H49.4641V80.9925H52.6041V69.5825H49.4641Z" fill="black"/>
<path d="M52.6039 86.7725C52.6039 89.6425 49.7639 91.9725 46.3039 91.9725C42.8339 91.9725 40.0239 89.6425 40.0239 86.7725C40.0239 83.9025 42.8339 81.5825 46.3039 81.5825C49.7639 81.5925 52.6039 83.9125 52.6039 86.7725ZM46.2939 83.4825C44.4939 83.4825 43.0739 84.9425 43.0739 86.7725C43.0739 88.6025 44.4939 90.0725 46.2939 90.0725C48.0839 90.0725 49.5039 88.6025 49.5039 86.7725C49.5139 84.9525 48.0939 83.4825 46.2939 83.4825Z" fill="black"/>
<path d="M71.9338 86.7725C71.9338 89.6425 69.1138 91.9725 65.6438 91.9725C62.1938 91.9725 59.3638 89.6425 59.3638 86.7725C59.3638 83.9025 62.1938 81.5825 65.6438 81.5825C69.1138 81.5925 71.9338 83.9125 71.9338 86.7725ZM65.6438 83.4825C63.8738 83.4825 62.4238 84.9425 62.4238 86.7725C62.4238 88.6025 63.8738 90.0725 65.6438 90.0725C67.4338 90.0725 68.8638 88.6025 68.8638 86.7725C68.8638 84.9525 67.4238 83.4825 65.6438 83.4825Z" fill="black"/>
<path d="M40.1239 71.0426H36.5939V72.9826H40.0039C39.6339 75.8226 38.4339 77.8726 36.0039 79.5226L37.1939 80.8526C39.1739 79.8726 40.6639 78.4426 41.6739 76.8426C43.0539 77.9326 44.4339 79.3126 45.6539 80.9526L47.2839 78.8526C45.7239 77.2026 44.5039 76.2026 42.6139 75.0626C42.8839 74.3726 43.0839 73.6826 43.1939 72.9926H47.0339V71.0526H43.3339V68.6626H40.1339V71.0426H40.1239Z" fill="black"/>
<path d="M124.324 74.8925C124.844 73.2525 124.844 71.6525 124.844 70.2125H121.494V71.6725C121.494 74.7325 120.234 77.6425 116.814 80.0725L117.984 81.3925C120.834 79.8725 122.484 78.2825 123.484 76.6925C124.654 77.6425 126.354 79.5025 127.794 81.5725L129.854 79.4625C128.064 77.4325 126.594 76.2425 124.324 74.8925Z" fill="black"/>
<path d="M152.324 69.5825V74.2525H149.784C149.274 71.6725 146.944 69.7225 144.144 69.7225C140.984 69.7225 138.414 72.2425 138.414 75.3425C138.414 78.4425 140.984 80.9625 144.144 80.9625C147.024 80.9625 149.404 78.9025 149.824 76.2125H152.324V80.9825H155.434V69.5725H152.324V69.5825ZM144.134 78.9625C142.684 78.9625 141.494 77.3325 141.494 75.3325C141.494 73.3325 142.694 71.6925 144.134 71.6925C145.614 71.6925 146.804 73.3325 146.804 75.3325C146.804 77.3425 145.624 78.9625 144.134 78.9625Z" fill="black"/>
<path d="M202.014 72.3026H214.044V82.3426H217.134V71.4326C217.114 70.7626 216.564 70.2225 215.904 70.2225H202.024V72.3026H202.014Z" fill="black"/>
<path d="M217.954 87.9225H200.194V85.9825H203.624V77.6025H206.734V85.9825H208.624V77.6025H211.734V85.9825H217.954V87.9225Z" fill="black"/>
<path d="M159.464 48.5123C158.604 47.6223 158.114 46.4123 158.114 45.1523C158.114 43.9023 158.614 42.6823 159.464 41.8223L171.634 29.6823C172.644 28.6523 173.294 28.1123 175.584 28.1123H191.684C194.274 28.1123 196.364 30.2123 196.364 32.7923C196.364 35.3823 194.274 37.4723 191.684 37.4723H177.074L169.344 45.1523L177.074 52.8423H191.684C194.274 52.8423 196.364 54.9423 196.364 57.5223C196.364 60.1123 194.274 62.2023 191.684 62.2023H175.584C173.284 62.2023 172.644 61.6823 171.634 60.6423L159.464 48.5123Z" fill="#FF8000"/>
<path d="M208.804 61.0927L194.274 46.5527C193.544 45.7727 193.544 44.5527 194.284 43.7627L208.794 29.2327C209.714 28.3127 210.954 27.8027 212.254 27.8027C213.574 27.8027 214.794 28.3127 215.714 29.2327C216.654 30.1727 217.164 31.3927 217.164 32.7027C217.164 34.0227 216.644 35.2427 215.714 36.1827L206.704 45.1527L215.714 54.1427C216.654 55.0627 217.164 56.3027 217.164 57.6027C217.164 58.9227 216.644 60.1427 215.714 61.0827C214.794 62.0027 213.554 62.5127 212.254 62.5127C210.954 62.5127 209.734 62.0127 208.804 61.0927Z" fill="#FF8000"/>
</svg>
