<svg width="254" height="120" viewBox="0 0 254 120" fill="none" xmlns="http://www.w3.org/2000/svg">
<path d="M97.9185 77.0083H88.3232L99.9988 48.1877L102.053 43.1257H107.54L109.585 48.1877L112.229 54.7233L114.873 48.1877L116.927 43.1257H122.414L136.135 77.0083H126.548L119.675 60.028L117.022 66.5549L112.793 77.0083H111.674H103.206L107.436 66.5549L104.792 60.028L97.9185 77.0083Z" fill="#450284"/>
<path d="M73.8744 57.8179V65.4023H79.4565C78.3643 67.5086 75.9287 69.3115 72.5742 69.3115C67.7896 69.3115 64.3138 65.4023 64.3138 60.0196C64.3138 54.6369 67.7896 50.849 72.5742 50.849C75.5126 50.849 78.0609 52.2185 79.2051 54.4202L79.5345 55.0529H89.1558L88.731 53.5534C86.7461 46.5584 80.1933 41.8605 72.4182 41.8605C62.4762 41.8605 55.2559 49.4968 55.2559 60.0282C55.2559 70.5597 62.4675 78.196 72.4182 78.196C82.3689 78.196 89.4331 70.3863 89.4331 60.0282V57.8266H73.8657L73.8744 57.8179Z" fill="#450284"/>
<path d="M144.856 68.5831V64.1105H159.669V55.6767H144.856V51.5595H161.004V43.1257H135.442V64.5786L140.478 77.0083H161.342V68.5831H144.856Z" fill="#450284"/>
<path d="M182.724 57.8179V65.4023H188.307C187.214 67.5086 184.779 69.3115 181.424 69.3115C176.64 69.3115 173.164 65.4023 173.164 60.0196C173.164 54.6369 176.64 50.849 181.424 50.849C184.363 50.849 186.911 52.2185 188.055 54.4202L188.385 55.0529H198.006L197.581 53.5534C195.596 46.5584 189.043 41.8605 181.268 41.8605C171.326 41.8605 164.106 49.4968 164.106 60.0282C164.106 70.5597 171.318 78.196 181.268 78.196C191.219 78.196 198.283 70.3863 198.283 60.0282V57.8266H182.716L182.724 57.8179Z" fill="#450284"/>
</svg>
