<svg width="112" height="26" viewBox="0 0 112 26" fill="none" xmlns="http://www.w3.org/2000/svg">
<path d="M62.6717 0V25.624H58.5859V0H62.6717Z" fill="#231F20"/>
<path d="M44.9175 25.7961H49.9165L41.5336 14.8767C43.3338 14.5115 44.7845 13.6767 45.8829 12.3698C46.9813 11.0655 47.5318 9.50561 47.5318 7.69005C47.5318 5.36581 46.6552 3.49808 44.9019 2.08162C43.313 0.808642 40.7274 0.17215 37.1504 0.17215H32.3628V7.64048L39.9525 19.0608L44.9175 25.7961ZM36.4486 3.80589H37.9044C41.6693 3.80589 43.5504 5.118 43.5504 7.73961C43.5504 10.5386 41.6145 11.9394 37.7453 11.9394H36.4486V3.80589Z" fill="black"/>
<path d="M11.4326 12.9672V16.6009H18.1848C17.997 18.4008 17.1021 19.9451 15.5027 21.2364C15.4192 21.3042 15.3331 21.3694 15.247 21.432L17.8196 24.3119C18.4223 23.8606 18.9962 23.3519 19.5363 22.7754C20.6478 21.5807 21.4357 20.2973 21.9027 18.9252C22.3828 17.4435 22.6228 15.7375 22.6228 13.8124V12.9672H11.4326Z" fill="black"/>
<path d="M3.17521 6.62836C5.11635 4.75802 7.51928 3.82415 10.3814 3.82415C13.5723 3.82415 16.2805 5.22495 18.5008 8.02395L21.4125 5.38408C19.7166 3.55025 17.992 2.22771 16.2387 1.41122C14.4019 0.597351 12.4269 0.187805 10.311 0.187805C6.37129 0.187805 3.0265 1.48688 0.27917 4.08762C0.182635 4.17892 0.0913167 4.27022 0 4.36413L2.57513 7.2466C2.76559 7.0353 2.96388 6.82922 3.17521 6.62836Z" fill="black"/>
<path d="M73.7812 0.17215V16.4496L77.867 22.6006V13.5985H86.9674V9.96211H77.867V3.80589H86.9752V0.17215H73.7812Z" fill="black"/>
<path d="M111.555 3.80589V0.17215H98.0347V16.4496L102.12 22.6006V13.5985H111.223V9.96211H102.12V3.80589H111.555Z" fill="black"/>
</svg>
