<svg width="178" height="72" viewBox="0 0 178 72" fill="none" xmlns="http://www.w3.org/2000/svg">
<path d="M100.178 0V39.7357H93.8351V0H100.178V0Z" fill="black"/>
<path d="M71.6545 40H79.4129L66.4256 23.0675C69.2194 22.5012 71.4658 21.1987 73.1647 19.1789C74.8636 17.159 75.7131 14.7428 75.7131 11.9302C75.7131 8.32468 74.3539 5.43653 71.6357 3.22794C69.1628 1.24587 65.1609 0.264275 59.6111 0.264275H52.1925V11.8358L63.9528 29.5422L71.6545 40ZM58.5162 5.88958H60.7815C66.6144 5.88958 69.5404 7.92827 69.5404 11.9868C69.5404 16.3285 66.5389 18.4993 60.5361 18.4993H58.5162V5.88958Z" fill="black"/>
<path d="M17.7247 20.1038V25.748H28.2014C27.9182 28.5418 26.5213 30.9391 24.0485 32.9401C23.9163 33.0533 23.7842 33.1477 23.6521 33.2421L27.6351 37.7159C28.5789 37.0175 29.4661 36.2246 30.2967 35.3374C32.0145 33.4875 33.2415 31.4866 33.9588 29.3724C34.695 27.0694 35.0725 24.4266 35.0725 21.4441V20.1227H17.7247V20.1038Z" fill="black"/>
<path d="M4.92685 10.269C7.92827 7.36197 11.6659 5.92732 16.1019 5.92732C21.0477 5.92732 25.2383 8.09817 28.6928 12.4398L33.2044 8.34356C30.5805 5.49315 27.9 3.45447 25.1817 2.18972C22.3313 0.924972 19.2732 0.302036 15.9887 0.302036C9.87259 0.302036 4.70032 2.32185 0.434159 6.34262C0.283144 6.47475 0.151015 6.62578 0 6.77679L3.98301 11.2506C4.28504 10.9108 4.60595 10.5899 4.92685 10.269Z" fill="black"/>
<path d="M118.413 0.264275V25.5026L124.737 35.0354V21.0854H138.857V15.4412H124.737V5.88958H138.857V0.264275H118.413Z" fill="black"/>
<path d="M177.969 5.88958V0.264275H157.016V25.5026L163.339 35.0354V21.0854H177.459V15.4412H163.339V5.88958H177.969Z" fill="black"/>
<path d="M132.52 67.6925C132.52 68.876 133.056 69.6136 134.661 69.6136C135.241 69.6136 135.687 69.5107 136.133 69.2877L136.312 69.2019C136.535 69.099 136.669 68.9961 137.07 68.9961C137.739 68.9961 138.252 69.3734 138.252 69.8194C138.252 70.6084 136.446 71.2945 134.55 71.2945C131.427 71.2945 130 69.8709 130 67.6925V64.9652C130 62.7868 131.427 61.3631 134.55 61.3631C136.446 61.3631 138.252 62.0321 138.252 62.8383C138.252 63.2842 137.761 63.6616 137.07 63.6616C136.669 63.6616 136.535 63.5587 136.312 63.4558L136.133 63.37C135.687 63.147 135.219 63.0441 134.661 63.0441C133.056 63.0441 132.52 63.7817 132.52 64.9652V67.6925Z" fill="#878787"/>
<path d="M139.611 65.9772V63.9875C139.611 62.5638 140.57 61.346 143.024 61.346C145.477 61.346 146.436 62.5467 146.436 63.9875V65.9772C146.436 67.4523 145.299 68.6187 143.024 68.6187C140.771 68.6359 139.611 67.4523 139.611 65.9772ZM141.463 63.9875V65.9772C141.463 66.7834 141.953 67.3494 143.024 67.3494C144.094 67.3494 144.585 66.7834 144.585 65.9772V63.9875C144.585 63.1642 144.161 62.6324 143.024 62.6324C141.886 62.6324 141.463 63.1642 141.463 63.9875Z" fill="#878787"/>
<path d="M145.278 71.346H140.84C140.171 71.346 139.636 70.9858 139.636 70.5055C139.636 70.0595 140.149 69.665 140.84 69.665H145.278C145.948 69.665 146.46 70.0424 146.46 70.5055C146.438 70.9858 145.925 71.346 145.278 71.346Z" fill="#878787"/>
<path d="M23.0743 67.8692C23.0743 69.1405 23.5204 69.9656 24.8585 69.9656C25.3269 69.9656 25.7283 69.8541 26.0851 69.6088L26.2413 69.5196C26.442 69.4081 26.5312 69.2966 26.8881 69.2966C27.4456 69.2966 27.8694 69.7203 27.8694 70.1887C27.8694 71.0585 26.3751 71.7944 24.7916 71.7944C22.1822 71.7944 21.0002 70.2333 21.0002 67.8915V64.9475C21.0002 62.5835 22.1822 61.0446 24.7916 61.0446C26.3751 61.0446 27.8694 61.7806 27.8694 62.6504C27.8694 63.1187 27.4456 63.5425 26.8881 63.5425C26.5535 63.5425 26.442 63.431 26.2413 63.3195L26.0851 63.2303C25.706 62.9849 25.3269 62.8734 24.8585 62.8734C23.5204 62.8734 23.0743 63.6763 23.0743 64.9699V67.8692Z" fill="#878787"/>
<path d="M40.4918 67.1555L42.5436 70.2333C43.0342 70.9693 42.2982 71.7722 41.6292 71.7722C41.25 71.7722 40.9378 71.616 40.7594 71.3038L38.2615 67.3785H37.2356V70.7908C37.2356 71.3038 36.745 71.7722 36.1874 71.7722C35.6298 71.7722 35.1614 71.3261 35.1614 70.7908V62.2043C35.1614 61.6245 35.6744 61.1338 36.2989 61.1338H38.886C41.6961 61.1338 42.5882 62.7396 42.5882 64.3008C42.5659 65.7727 41.7853 66.7541 40.4918 67.1555ZM38.8191 63.0295H37.2356V65.5051H38.9082C39.9342 65.5051 40.4918 65.0814 40.4918 64.3008C40.4695 63.6763 40.1572 63.0295 38.8191 63.0295Z" fill="#878787"/>
<path d="M55.4567 71.6383H51.5091C50.7731 71.6383 50.1264 71.393 50.1264 70.5901V62.2043C50.1264 61.6914 50.617 61.1561 51.2638 61.1561H55.3005C55.8581 61.1561 56.3488 61.6022 56.3488 62.1151C56.3488 62.6504 55.8804 63.0295 55.3005 63.0295H52.2005V65.4382H55.0106C55.5235 65.4382 56.0366 65.8397 56.0366 66.3749C56.0366 66.9102 55.5905 67.3339 55.0106 67.3339H52.2005V69.7649H55.4567C56.0142 69.7649 56.5049 70.1887 56.5049 70.6793C56.5049 71.2146 56.0142 71.6383 55.4567 71.6383Z" fill="#878787"/>
<path d="M65.4726 71.0807C65.3165 71.5045 64.8481 71.7722 64.4913 71.7722C63.9114 71.7722 63.4208 71.393 63.4208 70.8131C63.4208 70.7462 63.4431 70.5678 63.4654 70.4786L66.3648 62.0036C66.5655 61.4237 66.8554 61 67.5691 61C68.2827 61 68.5727 61.4237 68.7957 62.0036L71.6951 70.4786C71.7174 70.5455 71.7396 70.7239 71.7396 70.8131C71.7396 71.3707 71.2713 71.7722 70.6692 71.7722C70.29 71.7722 69.7994 71.4822 69.6433 71.0807L69.1303 69.5642H65.9633L65.4726 71.0807ZM67.859 65.3267C67.7252 64.903 67.6583 64.3231 67.5914 63.877C67.5245 64.3454 67.4576 64.903 67.3238 65.3267L66.5432 67.8692H68.6396L67.859 65.3267Z" fill="#878787"/>
<path d="M79.8348 63.0295H78.2514C77.6492 63.0295 77.2031 62.6058 77.2031 62.0928C77.2031 61.6691 77.6715 61.1338 78.2514 61.1338H83.4925C84.0277 61.1338 84.5407 61.5575 84.5407 62.0928C84.5407 62.6058 84.05 63.0295 83.4925 63.0295H81.909V70.8355C81.909 71.3484 81.4407 71.7944 80.8608 71.7944C80.2809 71.7944 79.8126 71.3484 79.8126 70.8355V63.0295H79.8348Z" fill="#878787"/>
<path d="M91.7434 61.959C91.7434 61.446 92.2117 61 92.7916 61C93.3492 61 93.8398 61.446 93.8398 61.959V70.8355C93.8398 71.3484 93.3715 71.7944 92.7916 71.7944C92.2117 71.7944 91.7434 71.3484 91.7434 70.8355V61.959Z" fill="#878787"/>
<path d="M107.266 61.7137C107.422 61.2899 107.891 61.0223 108.27 61.0223C108.872 61.0223 109.34 61.4015 109.34 61.9813C109.34 62.0482 109.318 62.2266 109.296 62.3158L106.397 70.7908C106.196 71.393 105.884 71.7944 105.17 71.7944C104.456 71.7944 104.144 71.3707 103.966 70.7908L101.066 62.3158C101.044 62.2489 101.022 62.0705 101.022 61.9813C101.022 61.4238 101.512 61.0223 102.092 61.0223C102.449 61.0223 102.917 61.2899 103.073 61.7137L104.902 67.4677C105.036 67.8915 105.103 68.4714 105.17 68.9174C105.237 68.4491 105.304 67.8915 105.438 67.4677L107.266 61.7137Z" fill="#878787"/>
<path d="M121.874 71.6383H117.927C117.191 71.6383 116.544 71.393 116.544 70.5901V62.2043C116.544 61.6914 117.035 61.1561 117.681 61.1561H121.718C122.276 61.1561 122.766 61.6022 122.766 62.1151C122.766 62.6504 122.298 63.0295 121.718 63.0295H118.618V65.4382H121.428C121.941 65.4382 122.454 65.8397 122.454 66.3749C122.454 66.9102 122.008 67.3339 121.428 67.3339H118.618V69.7649H121.874C122.432 69.7649 122.923 70.1887 122.923 70.6793C122.923 71.2146 122.432 71.6383 121.874 71.6383Z" fill="#878787"/>
</svg>
