<svg width="16" height="16" viewBox="0 0 16 16" fill="none" xmlns="http://www.w3.org/2000/svg">
<g clip-path="url(#clip0_47_112)">
<rect width="16" height="16" rx="5" fill="#414141"/>
<path d="M11.7333 14.5385C11.7327 14.7929 11.5239 14.9994 11.2667 15H4.73333C4.47549 15 4.26667 14.7935 4.26667 14.5385C4.26667 14.2835 4.47549 14.0769 4.73333 14.0769H11.2667C11.5239 14.0775 11.7328 14.284 11.7333 14.5385ZM15 3.92308V11.7692C14.9982 12.2787 14.5817 12.6906 14.0667 12.6923H1.93333C1.41825 12.6906 1.00175 12.2787 1 11.7692V3.92308C1.00175 3.41366 1.41825 3.00173 1.93333 3H14.0667C14.5817 3.00173 14.9983 3.41366 15 3.92308ZM10.6057 7.84608C10.6051 7.70012 10.5293 7.56455 10.405 7.48666L6.98202 5.37052C6.84961 5.29148 6.68452 5.28802 6.5492 5.36244C6.41387 5.43687 6.32927 5.57706 6.32753 5.73052V9.9622V9.96163C6.32753 10.1157 6.41269 10.257 6.54978 10.3297C6.61161 10.3666 6.68278 10.3857 6.75511 10.3851C6.83503 10.3851 6.91378 10.3632 6.98202 10.3216L10.405 8.20608V8.20551C10.5293 8.12762 10.6051 7.99204 10.6057 7.84608Z" fill="white"/>
</g>
<defs>
<clipPath id="clip0_47_112">
<rect width="16" height="16" fill="white"/>
</clipPath>
</defs>
</svg>
