<svg width="254" height="120" viewBox="0 0 254 120" fill="none" xmlns="http://www.w3.org/2000/svg">
<g clip-path="url(#clip0_108_347)">
<path d="M111.87 48.5987V71.6292H107.872V53.5566H107.818L100.675 71.6292H98.0091L90.7054 53.5566H90.6521V71.6292H86.9736V48.5987H92.7313L99.3419 65.6583H99.4485L106.432 48.5987H111.87ZM115.175 50.3579C115.175 49.7182 115.389 49.1851 115.868 48.7586C116.348 48.3321 116.881 48.1189 117.521 48.1189C118.214 48.1189 118.801 48.3321 119.227 48.7586C119.653 49.1851 119.92 49.7182 119.92 50.3579C119.92 50.9977 119.707 51.5308 119.227 51.9573C118.747 52.3838 118.214 52.597 117.521 52.597C116.828 52.597 116.295 52.3838 115.868 51.9573C115.442 51.4775 115.175 50.9444 115.175 50.3579ZM119.494 55.1026V71.6292H115.602V55.1026H119.494ZM131.275 68.8037C131.862 68.8037 132.502 68.697 133.195 68.3772C133.888 68.1106 134.527 67.7374 135.114 67.3109V70.9361C134.474 71.3093 133.781 71.5759 132.981 71.7358C132.182 71.8957 131.329 72.0023 130.369 72.0023C127.917 72.0023 125.944 71.256 124.452 69.71C122.905 68.1639 122.159 66.1914 122.159 63.8457C122.159 61.1801 122.959 58.9944 124.505 57.2884C126.051 55.5824 128.237 54.7295 131.115 54.7295C131.862 54.7295 132.608 54.8361 133.301 54.996C134.048 55.156 134.634 55.4225 135.06 55.6358V59.3676C134.474 58.9411 133.834 58.5679 133.248 58.3546C132.608 58.1414 131.968 57.9815 131.329 57.9815C129.783 57.9815 128.556 58.4613 127.597 59.4742C126.637 60.4871 126.211 61.8199 126.211 63.5258C126.211 65.1785 126.691 66.5113 127.597 67.4176C128.503 68.3239 129.729 68.8037 131.275 68.8037ZM146.149 54.8361C146.469 54.8361 146.736 54.8361 147.002 54.8894C147.269 54.9427 147.482 54.996 147.642 55.0493V58.9944C147.429 58.8344 147.162 58.6745 146.736 58.5679C146.309 58.4613 145.883 58.3546 145.296 58.3546C144.337 58.3546 143.537 58.7811 142.897 59.5808C142.257 60.3805 141.884 61.6066 141.884 63.3126V71.6292H137.993V55.1026H141.884V57.7149H141.938C142.311 56.8086 142.844 56.1156 143.537 55.5824C144.283 55.1026 145.136 54.8361 146.149 54.8361ZM147.855 63.6325C147.855 60.9136 148.655 58.7278 150.148 57.1285C151.694 55.5291 153.826 54.7295 156.545 54.7295C159.104 54.7295 161.13 55.4758 162.569 57.0219C164.009 58.5679 164.755 60.647 164.755 63.2593C164.755 65.9248 163.955 68.0573 162.462 69.6566C160.916 71.256 158.837 72.0557 156.172 72.0557C153.613 72.0557 151.587 71.3093 150.094 69.8166C148.602 68.2705 147.855 66.1914 147.855 63.6325ZM151.907 63.4725C151.907 65.1785 152.28 66.5113 153.08 67.4176C153.879 68.3239 154.999 68.8037 156.438 68.8037C157.824 68.8037 158.944 68.3772 159.69 67.4176C160.437 66.5113 160.81 65.1785 160.81 63.3659C160.81 61.6066 160.437 60.2738 159.69 59.3142C158.944 58.4079 157.824 57.9281 156.492 57.9281C155.052 57.9281 153.986 58.4079 153.186 59.3676C152.28 60.3805 151.907 61.7133 151.907 63.4725ZM170.566 59.4742C170.566 60.0073 170.726 60.4871 171.099 60.807C171.472 61.1268 172.218 61.5 173.445 61.9798C174.991 62.6195 176.11 63.3126 176.697 64.059C177.336 64.8586 177.656 65.7649 177.656 66.8845C177.656 68.4305 177.07 69.6566 175.844 70.6162C174.671 71.5759 173.018 72.0023 170.992 72.0023C170.299 72.0023 169.553 71.8957 168.7 71.7358C167.847 71.5759 167.154 71.3626 166.567 71.096V67.2576C167.261 67.7374 168.06 68.1639 168.86 68.4305C169.66 68.697 170.406 68.857 171.099 68.857C171.952 68.857 172.645 68.7504 173.018 68.4838C173.445 68.2172 173.658 67.8441 173.658 67.2576C173.658 66.7245 173.445 66.298 173.018 65.8715C172.592 65.4984 171.739 65.0719 170.566 64.5921C169.126 64.0056 168.113 63.3126 167.527 62.5662C166.941 61.8199 166.621 60.8603 166.621 59.6874C166.621 58.1947 167.207 56.9685 168.38 56.0089C169.553 55.0493 171.099 54.5695 172.965 54.5695C173.551 54.5695 174.191 54.6228 174.884 54.7828C175.577 54.9427 176.217 55.1026 176.697 55.2626V59.0477C176.164 58.7278 175.577 58.4079 174.884 58.1414C174.191 57.8748 173.498 57.7682 172.858 57.7682C172.112 57.7682 171.525 57.9281 171.152 58.1947C170.779 58.5679 170.566 58.9411 170.566 59.4742ZM179.309 63.6325C179.309 60.9136 180.109 58.7278 181.601 57.1285C183.147 55.5291 185.28 54.7295 187.999 54.7295C190.558 54.7295 192.583 55.4758 194.023 57.0219C195.462 58.5679 196.209 60.647 196.209 63.2593C196.209 65.9248 195.409 68.0573 193.916 69.6566C192.37 71.256 190.291 72.0557 187.625 72.0557C185.067 72.0557 183.041 71.3093 181.548 69.8166C180.109 68.2705 179.309 66.1914 179.309 63.6325ZM183.361 63.4725C183.361 65.1785 183.734 66.5113 184.533 67.4176C185.333 68.3239 186.453 68.8037 187.892 68.8037C189.278 68.8037 190.398 68.3772 191.144 67.4176C191.89 66.5113 192.264 65.1785 192.264 63.3659C192.264 61.6066 191.89 60.2738 191.144 59.3142C190.398 58.4079 189.278 57.9281 187.945 57.9281C186.506 57.9281 185.44 58.4079 184.64 59.3676C183.787 60.3805 183.361 61.7133 183.361 63.4725ZM209.163 58.3013H203.352V71.6292H199.407V58.3013H196.635V55.1026H199.407V52.8103C199.407 51.1043 199.994 49.6649 201.113 48.5454C202.233 47.4258 203.672 46.8927 205.431 46.8927C205.911 46.8927 206.338 46.946 206.711 46.946C207.084 46.946 207.404 47.0526 207.671 47.1593V50.5179C207.564 50.4646 207.297 50.3579 206.977 50.2513C206.658 50.1447 206.284 50.0914 205.858 50.0914C205.058 50.0914 204.419 50.3579 203.992 50.8377C203.566 51.3175 203.352 52.1172 203.352 53.0768V55.0493H209.163V51.3175L213.055 50.1447V55.0493H217V58.248H213.055V65.9782C213.055 66.9911 213.268 67.6841 213.588 68.1106C213.961 68.5371 214.548 68.7504 215.347 68.7504C215.561 68.7504 215.827 68.697 216.147 68.5904C216.467 68.4838 216.733 68.3772 216.947 68.2172V71.4159C216.68 71.5759 216.307 71.6825 215.721 71.7891C215.134 71.8957 214.601 71.949 214.015 71.949C212.362 71.949 211.136 71.5225 210.336 70.6696C209.536 69.8166 209.11 68.4838 209.11 66.7245L209.163 58.3013Z" fill="#737373"/>
<path d="M55.2535 40.9218H37.021V59.1543H55.2535V40.9218Z" fill="#F25022"/>
<path d="M75.4048 40.9218H57.1724V59.1543H75.4048V40.9218Z" fill="#7FBA00"/>
<path d="M55.2535 61.0735H37.021V79.306H55.2535V61.0735Z" fill="#00A4EF"/>
<path d="M75.4048 61.0735H57.1724V79.306H75.4048V61.0735Z" fill="#FFB900"/>
</g>
<defs>
<clipPath id="clip0_108_347">
<rect width="179.979" height="38.3842" fill="white" transform="translate(37.021 40.9218)"/>
</clipPath>
</defs>
</svg>
