<svg width="16" height="16" viewBox="0 0 16 16" fill="none" xmlns="http://www.w3.org/2000/svg">
<path d="M1.99967 12.0002V4.66623C1.99979 4.13595 2.21064 3.62714 2.58561 3.25216C2.9606 2.8772 3.46938 2.66631 3.99967 2.66623H7.33366C7.70166 2.6664 7.99961 2.96519 7.99967 3.33322C7.99967 3.7013 7.7017 4.00004 7.33366 4.00021H3.99967C3.823 4.0003 3.65391 4.07061 3.52897 4.19552C3.40405 4.32045 3.33377 4.48957 3.33366 4.66623V12.0002C3.33371 12.1769 3.40403 12.3459 3.52897 12.4709C3.65392 12.5959 3.82298 12.6661 3.99967 12.6662H11.3337C11.5103 12.6661 11.6794 12.5959 11.8044 12.4709C11.9293 12.3459 11.9996 12.1769 11.9997 12.0002V8.66623C11.9999 8.29824 12.2986 8.00021 12.6667 8.00021C13.0347 8.00021 13.3334 8.29824 13.3337 8.66623V12.0002C13.3336 12.5305 13.1227 13.0393 12.7477 13.4143C12.3727 13.7893 11.864 14.0001 11.3337 14.0002H3.99967C3.46936 14.0001 2.96061 13.7893 2.58561 13.4143C2.21062 13.0393 1.99973 12.5305 1.99967 12.0002ZM12.6657 1.31662C12.9312 1.31431 13.1944 1.36552 13.4401 1.46603C13.6859 1.56658 13.9096 1.7148 14.0973 1.90256C14.2851 2.09034 14.4333 2.31399 14.5339 2.55978C14.6344 2.80552 14.6856 3.0687 14.6833 3.3342C14.681 3.59975 14.626 3.86265 14.5212 4.10666C14.4179 4.34706 14.2668 4.5635 14.0798 4.74631L14.0807 4.74728L8.35709 10.4709C8.23209 10.5959 8.0622 10.6662 7.88541 10.6662H5.99967C5.6317 10.6661 5.33377 10.3682 5.33366 10.0002V8.11447C5.33371 7.93773 5.40399 7.76777 5.52897 7.64279L11.2526 1.91916V1.92013C11.4354 1.73293 11.6528 1.58307 11.8932 1.4797C12.1372 1.37489 12.4001 1.31893 12.6657 1.31662ZM12.195 2.86252L6.66666 8.39084V9.33322H7.60905L13.1383 3.8049L13.1462 3.79611L13.2321 3.69552C13.257 3.65943 13.2782 3.62077 13.2956 3.58029C13.3305 3.49895 13.3485 3.411 13.3493 3.32248C13.35 3.23415 13.3339 3.14644 13.3005 3.06466C13.2669 2.98273 13.2166 2.90851 13.154 2.84591C13.0914 2.78335 13.0171 2.73392 12.9352 2.70041C12.8534 2.66692 12.7659 2.64985 12.6774 2.6506C12.5889 2.65137 12.5009 2.66937 12.4196 2.70431C12.3384 2.73922 12.2652 2.79019 12.2038 2.85373L12.196 2.86252H12.195Z" fill="#7C7C7C"/>
</svg>
