<svg width="254" height="120" viewBox="0 0 254 120" fill="none" xmlns="http://www.w3.org/2000/svg">
<rect width="253.953" height="120" fill="white"/>
<path d="M151.328 25.2153C155.359 25.2153 156.833 26.6822 156.837 30.6552V79.1058C156.837 79.7277 156.72 80.8508 156.519 81.3301C156.356 81.7891 156.094 82.2065 155.751 82.5519C155.359 82.9141 154.69 83.2909 154.368 83.4372L128.295 94.4122C127.801 94.6199 127.271 94.727 126.735 94.727C126.199 94.727 125.668 94.6199 125.174 94.4122L99.1017 83.4372C98.6038 83.2057 98.1389 82.9092 97.7188 82.5556C97.3751 82.2091 97.1127 81.7905 96.9506 81.3301C96.7494 80.8508 96.636 79.7277 96.636 79.1058V30.6515C96.636 26.6786 98.1103 25.2116 102.142 25.2116L151.328 25.2153ZM116.943 83.6933C116.905 83.7102 116.872 83.7377 116.848 83.7727C116.825 83.8078 116.812 83.8488 116.812 83.8909C116.812 83.9201 116.818 83.947 116.83 83.9713C116.851 84.0235 116.892 84.0654 116.943 84.0884L126.382 88.0869C126.486 88.1317 126.599 88.1548 126.713 88.1548C126.827 88.1548 126.939 88.1317 127.044 88.0869L136.555 84.0884L136.629 84.0409L136.673 83.975L136.691 83.8909L136.673 83.8104L136.625 83.7409L136.555 83.6933L136.475 83.675H117.027L116.943 83.6933ZM109.539 66.8102C108.907 66.8102 108.322 66.9175 107.783 67.1322C106.747 67.5408 105.916 68.3433 105.471 69.3637C105.249 69.871 105.138 70.4198 105.138 71.01V71.0319C105.138 71.6416 105.25 72.2026 105.474 72.7147C105.701 73.2269 106.012 73.6659 106.407 74.0317C106.807 74.4024 107.277 74.6914 107.816 74.8987C108.357 75.106 108.947 75.2097 109.586 75.2097C110.333 75.2097 111.003 75.0902 111.598 74.8512C112.184 74.6122 112.696 74.3159 113.135 73.9622V70.3259H109.374V71.9721H110.984V72.9489C110.591 73.1867 110.137 73.3038 109.678 73.2854C109.383 73.293 109.089 73.2408 108.814 73.132C108.539 73.0233 108.289 72.8602 108.079 72.6525C107.881 72.4492 107.725 72.2094 107.618 71.9465C107.511 71.6574 107.456 71.3513 107.457 71.0429V71.0209C107.453 70.4392 107.668 69.8772 108.061 69.4479C108.253 69.247 108.483 69.0865 108.738 68.9759C108.994 68.8653 109.268 68.8069 109.546 68.804C109.951 68.804 110.308 68.8699 110.618 69.0016C110.945 69.1443 111.25 69.3341 111.522 69.5649L112.85 67.9845C112.411 67.6163 111.931 67.3285 111.412 67.1212C110.811 66.9012 110.175 66.7958 109.535 66.8102M144.783 66.8285C144.334 66.8239 143.888 66.888 143.459 67.0187C143.095 67.1316 142.757 67.3143 142.464 67.5565C142.189 67.7802 141.969 68.0642 141.822 68.3865C141.675 68.7089 141.604 69.0608 141.615 69.4149V69.4406C141.615 69.8552 141.695 70.2027 141.856 70.4832C142.015 70.7636 142.232 70.9978 142.508 71.1856C142.786 71.3758 143.111 71.5294 143.484 71.6465C143.857 71.7685 144.262 71.8782 144.699 71.9758C144.979 72.0367 145.207 72.0977 145.383 72.1587C145.529 72.2024 145.67 72.2613 145.804 72.3343C145.889 72.3803 145.962 72.4469 146.016 72.5282C146.055 72.5916 146.076 72.6647 146.078 72.7477V72.7733C146.082 72.8572 146.061 72.9403 146.019 73.013C145.977 73.0856 145.915 73.1446 145.84 73.183C145.624 73.2881 145.385 73.3384 145.145 73.3293C144.194 73.3293 143.31 73.0062 142.493 72.3599L141.234 73.8452C141.739 74.2915 142.32 74.6268 142.976 74.8512C143.634 75.0731 144.329 75.1841 145.061 75.1841C145.559 75.1841 146.01 75.1243 146.415 75.0048C146.793 74.9044 147.148 74.729 147.457 74.489C147.737 74.2637 147.966 73.982 148.13 73.6622C148.292 73.314 148.373 72.934 148.368 72.5501V72.5318C148.374 72.193 148.301 71.8574 148.156 71.5514C148.016 71.2716 147.807 71.0323 147.549 70.8563C147.254 70.6462 146.93 70.481 146.587 70.3661C146.171 70.2225 145.747 70.104 145.317 70.0112C145.083 69.9629 144.851 69.9031 144.622 69.832C144.476 69.7837 144.333 69.7263 144.194 69.66C144.105 69.6176 144.028 69.5534 143.971 69.4735C143.925 69.4 143.902 69.3148 143.905 69.2284V69.2028C143.907 69.0564 143.976 68.9345 144.11 68.8369C144.296 68.7277 144.509 68.6755 144.724 68.6869C145.09 68.6869 145.468 68.7552 145.859 68.8918C146.254 69.0259 146.638 69.2235 147.011 69.4844L148.145 67.9041C147.7 67.5485 147.194 67.2759 146.652 67.0992C146.104 66.9163 145.48 66.8261 144.783 66.8285ZM113.852 75.0378H116.237L116.823 73.5964H119.972L120.569 75.0378H123.001L119.515 66.9017H117.335L113.852 75.0378ZM123.792 75.0378H126.012V70.421L128.09 73.5598H128.138L130.227 70.399V75.0378H132.48V66.9566H130.088L128.138 70.0844L126.188 66.9566H123.792V75.0378ZM133.998 75.0378H140.627V73.1354H136.237V71.855H140.163V70.0917H136.237V68.8662H140.569V66.9639H133.995L133.998 75.0378ZM119.321 71.855H117.485L118.407 69.5576L119.321 71.855ZM141.169 33.7025C137.825 33.7025 136.168 35.3415 136.168 38.6522V55.8646C136.168 59.179 137.825 60.8106 141.172 60.8106H143.21C146.557 60.8106 148.211 59.1753 148.211 55.8646V49.6601H144.172V55.6707C144.172 56.7389 143.671 57.2328 142.636 57.2328H141.864C140.788 57.2328 140.291 56.7389 140.291 55.6707V38.8425C140.291 37.7816 140.784 37.284 141.864 37.284H142.559C143.594 37.284 144.095 37.7779 144.095 38.8461V44.0556H148.134V38.6156C148.134 35.3049 146.517 33.7025 143.17 33.7025H141.169ZM105.332 60.5911H114.565V56.8962H109.447V48.8589H114.298V45.164H109.447V37.6279H114.489V33.933H105.332V60.5911ZM116.555 60.5911H120.671V50.9149H123.016C126.363 50.9149 128.021 49.276 128.021 45.9652V38.8827C128.021 35.5683 126.363 33.933 123.016 33.933H116.555V60.5911ZM129.875 60.5874H133.991V33.933H129.879L129.875 60.5874ZM122.365 37.5145C123.4 37.5145 123.901 38.0084 123.901 39.0766V45.775C123.901 46.8395 123.404 47.3371 122.365 47.3371H120.671V37.5072L122.365 37.5145Z" fill="black"/>
</svg>
