<svg width="1000" height="600" viewBox="0 0 1000 600" fill="none" xmlns="http://www.w3.org/2000/svg">
<g clip-path="url(#clip0_99_561)">
<g clip-path="url(#clip1_99_561)">
<path d="M562.871 100V325.829H526.868V100H562.871Z" fill="white"/>
<path d="M400.97 327.331H445.008L371.29 231.099C387.148 227.88 399.899 220.478 409.542 208.999C419.185 197.519 424.007 183.787 424.007 167.803C424.007 147.311 416.292 130.897 400.863 118.345C386.827 107.081 364.112 101.502 332.611 101.502H290.502V167.266L357.255 267.896L400.97 327.331ZM326.396 133.472H339.254C372.362 133.472 388.97 145.059 388.97 168.124C388.97 192.799 371.933 205.137 337.861 205.137H326.396V133.472Z" fill="white"/>
<path d="M94.8589 214.255V246.333H154.326C152.718 262.211 144.789 275.835 130.753 287.207C130.003 287.851 129.253 288.387 128.503 288.924L151.111 314.35C156.468 310.38 161.504 305.874 166.219 300.832C175.969 290.318 182.934 278.947 187.005 266.931C191.184 253.843 193.327 238.823 193.327 221.873V214.363H94.8589V214.255Z" fill="white"/>
<path d="M22.2182 158.361C39.2545 141.84 60.4697 133.687 85.6488 133.687C113.722 133.687 137.508 146.024 157.116 170.699L182.724 147.419C167.831 131.219 152.616 119.633 137.187 112.445C121.007 105.257 103.649 101.717 85.0063 101.717C50.2907 101.717 20.9324 113.196 -3.28274 136.047C-4.13992 136.798 -4.88989 137.656 -5.74707 138.514L16.8609 163.94C18.5752 162.009 20.3967 160.185 22.2182 158.361Z" fill="white"/>
<path d="M666.377 101.502V244.938L702.273 299.116V219.834H782.419V187.757H702.273V133.472H782.419V101.502H666.377Z" fill="white"/>
<path d="M1004.42 133.472V101.502H885.492V244.938L921.382 299.116V219.834H1001.53V187.757H921.382V133.472H1004.42Z" fill="white"/>
<path d="M746.449 484.715C746.449 491.441 749.492 495.633 758.602 495.633C761.894 495.633 764.425 495.048 766.957 493.781L767.973 493.293C769.239 492.708 769.999 492.123 772.276 492.123C776.073 492.123 778.985 494.268 778.985 496.802C778.985 501.286 768.734 505.186 757.972 505.186C740.245 505.186 732.146 497.095 732.146 484.715V469.215C732.146 456.834 740.245 448.743 757.972 448.743C768.734 448.743 778.985 452.545 778.985 457.127C778.985 459.661 776.198 461.806 772.276 461.806C769.999 461.806 769.239 461.221 767.973 460.636L766.957 460.149C764.425 458.881 761.769 458.297 758.602 458.297C749.492 458.297 746.449 462.489 746.449 469.215V484.715Z" fill="#878787"/>
<path d="M786.697 474.966V463.658C786.697 455.567 792.141 448.646 806.07 448.646C819.993 448.646 825.437 455.47 825.437 463.658V474.966C825.437 483.35 818.983 489.979 806.07 489.979C793.282 490.076 786.697 483.35 786.697 474.966ZM797.209 463.658V474.966C797.209 479.548 799.991 482.765 806.07 482.765C812.143 482.765 814.93 479.548 814.93 474.966V463.658C814.93 458.979 812.524 455.957 806.07 455.957C799.61 455.957 797.209 458.979 797.209 463.658Z" fill="#878787"/>
<path d="M818.866 505.479H793.675C789.878 505.479 786.841 503.431 786.841 500.702C786.841 498.167 789.753 495.925 793.675 495.925H818.866C822.669 495.925 825.575 498.07 825.575 500.702C825.45 503.431 822.538 505.479 818.866 505.479Z" fill="#878787"/>
<path d="M125.224 485.719C125.224 492.944 127.756 497.633 135.351 497.633C138.01 497.633 140.288 497 142.314 495.606L143.2 495.099C144.339 494.465 144.846 493.831 146.871 493.831C150.036 493.831 152.441 496.239 152.441 498.901C152.441 503.845 143.96 508.027 134.972 508.027C120.16 508.027 113.451 499.155 113.451 485.846V469.114C113.451 455.679 120.16 446.933 134.972 446.933C143.96 446.933 152.441 451.116 152.441 456.059C152.441 458.721 150.036 461.129 146.871 461.129C144.972 461.129 144.339 460.495 143.2 459.862L142.314 459.355C140.162 457.96 138.01 457.327 135.351 457.327C127.756 457.327 125.224 461.89 125.224 469.241V485.719Z" fill="#878787"/>
<path d="M224.089 481.663L235.736 499.155C238.52 503.338 234.343 507.901 230.545 507.901C228.393 507.901 226.621 507.013 225.608 505.239L211.43 482.93H205.607V502.323C205.607 505.239 202.822 507.901 199.657 507.901C196.492 507.901 193.833 505.365 193.833 502.323V453.524C193.833 450.229 196.745 447.44 200.29 447.44H214.975C230.925 447.44 235.989 456.566 235.989 465.439C235.862 473.804 231.431 479.382 224.089 481.663ZM214.595 458.214H205.607V472.283H215.101C220.924 472.283 224.089 469.875 224.089 465.439C223.963 461.89 222.19 458.214 214.595 458.214Z" fill="#878787"/>
<path d="M309.031 507.14H286.624C282.447 507.14 278.776 505.746 278.776 501.183V453.524C278.776 450.609 281.561 447.567 285.232 447.567H308.145C311.31 447.567 314.095 450.102 314.095 453.017C314.095 456.059 311.436 458.214 308.145 458.214H290.549V471.903H306.499C309.41 471.903 312.323 474.185 312.323 477.226C312.323 480.269 309.791 482.677 306.499 482.677H290.549V496.493H309.031C312.196 496.493 314.981 498.901 314.981 501.689C314.981 504.732 312.196 507.14 309.031 507.14Z" fill="#878787"/>
<path d="M365.883 503.971C364.997 506.379 362.338 507.901 360.313 507.901C357.021 507.901 354.236 505.746 354.236 502.45C354.236 502.07 354.363 501.056 354.489 500.549L370.947 452.383C372.086 449.087 373.731 446.679 377.782 446.679C381.833 446.679 383.479 449.087 384.745 452.383L401.202 500.549C401.329 500.929 401.455 501.943 401.455 502.45C401.455 505.619 398.796 507.901 395.379 507.901C393.227 507.901 390.442 506.253 389.556 503.971L386.644 495.352H368.668L365.883 503.971ZM379.428 471.269C378.669 468.861 378.289 465.565 377.909 463.03C377.529 465.692 377.15 468.861 376.39 471.269L371.959 485.719H383.859L379.428 471.269Z" fill="#878787"/>
<path d="M447.402 458.214H438.415C434.996 458.214 432.464 455.806 432.464 452.89C432.464 450.482 435.123 447.44 438.415 447.44H468.164C471.201 447.44 474.113 449.848 474.113 452.89C474.113 455.806 471.328 458.214 468.164 458.214H459.175V502.577C459.175 505.492 456.517 508.027 453.226 508.027C449.934 508.027 447.276 505.492 447.276 502.577V458.214H447.402Z" fill="#878787"/>
<path d="M514.997 452.13C514.997 449.214 517.655 446.679 520.946 446.679C524.111 446.679 526.896 449.214 526.896 452.13V502.577C526.896 505.492 524.238 508.027 520.946 508.027C517.655 508.027 514.997 505.492 514.997 502.577V452.13Z" fill="#878787"/>
<path d="M603.104 450.736C603.989 448.327 606.651 446.806 608.802 446.806C612.219 446.806 614.876 448.961 614.876 452.256C614.876 452.637 614.751 453.651 614.626 454.157L598.171 502.323C597.03 505.746 595.259 508.027 591.207 508.027C587.154 508.027 585.383 505.619 584.373 502.323L567.912 454.157C567.787 453.777 567.662 452.763 567.662 452.256C567.662 449.088 570.443 446.806 573.736 446.806C575.762 446.806 578.418 448.327 579.304 450.736L589.685 483.437C590.446 485.846 590.826 489.141 591.207 491.676C591.587 489.015 591.967 485.846 592.728 483.437L603.104 450.736Z" fill="#878787"/>
<path d="M686.021 507.14H663.618C659.44 507.14 655.768 505.746 655.768 501.183V453.524C655.768 450.609 658.555 447.567 662.221 447.567H685.136C688.303 447.567 691.084 450.102 691.084 453.017C691.084 456.059 688.428 458.214 685.136 458.214H667.54V471.903H683.49C686.401 471.903 689.313 474.185 689.313 477.226C689.313 480.269 686.782 482.677 683.49 482.677H667.54V496.493H686.021C689.188 496.493 691.975 498.901 691.975 501.689C691.975 504.732 689.188 507.14 686.021 507.14Z" fill="#878787"/>
</g>
</g>
<defs>
<clipPath id="clip0_99_561">
<rect width="1000" height="600" fill="white"/>
</clipPath>
<clipPath id="clip1_99_561">
<rect width="1010.34" height="409.195" fill="white" transform="translate(-5.74707 100)"/>
</clipPath>
</defs>
</svg>
