<svg width="16" height="16" viewBox="0 0 16 16" fill="none" xmlns="http://www.w3.org/2000/svg">
<path d="M7.33334 3.33333H4.00001C3.64638 3.33333 3.30724 3.47381 3.0572 3.72385C2.80715 3.9739 2.66667 4.31304 2.66667 4.66666V12C2.66667 12.3536 2.80715 12.6928 3.0572 12.9428C3.30724 13.1929 3.64638 13.3333 4.00001 13.3333H11.3333C11.687 13.3333 12.0261 13.1929 12.2761 12.9428C12.5262 12.6928 12.6667 12.3536 12.6667 12V8.66666M11.724 2.39066C11.847 2.26332 11.9941 2.16174 12.1568 2.09186C12.3195 2.02198 12.4944 1.9852 12.6715 1.98366C12.8485 1.98212 13.0241 2.01586 13.1879 2.0829C13.3518 2.14994 13.5007 2.24895 13.6259 2.37414C13.7511 2.49933 13.8501 2.6482 13.9171 2.81206C13.9841 2.97592 14.0179 3.15149 14.0163 3.32853C14.0148 3.50557 13.978 3.68053 13.9081 3.8432C13.8383 4.00587 13.7367 4.153 13.6093 4.276L7.88534 10H6.00001V8.11466L11.724 2.39066Z" stroke="#011E47" stroke-width="1.33333" stroke-linecap="round" stroke-linejoin="round"/>
</svg>
