<svg width="16" height="16" viewBox="0 0 16 16" fill="none" xmlns="http://www.w3.org/2000/svg">
<g clip-path="url(#clip0_47_125)">
<rect width="16" height="16" rx="5" fill="#414141"/>
<path d="M15.4174 6.49003C14.9968 6.18966 14.4591 6.11713 13.9763 6.29434L11.7143 7.1154V7.02098C11.7143 6.11439 10.9944 5.37886 10.1072 5.37886H10.0931C10.448 4.90812 10.6409 4.33064 10.6429 3.73674C10.6442 2.90064 10.2712 2.10967 9.62903 1.59034C8.98751 1.07103 8.14845 0.880806 7.35229 1.07376C6.55542 1.2674 5.8898 1.82229 5.54492 2.58109C4.74001 1.91808 3.58481 1.94136 2.80601 2.63652C2.02721 3.33169 1.8491 4.49758 2.38415 5.4021C1.5933 5.515 1.00334 6.20468 1 7.02096V12.3579C1 13.2645 1.71986 14 2.60714 14H10.1071C10.9777 13.9979 11.6882 13.2884 11.7102 12.3989L13.9764 13.22C14.1491 13.2829 14.3313 13.3151 14.5147 13.3151C14.8382 13.3158 15.1536 13.2145 15.4174 13.0243C15.779 12.7739 15.9967 12.3579 16 11.9118V7.6039C15.9973 7.15711 15.7796 6.74045 15.4174 6.49003ZM7.96417 2.09458C8.6144 2.09458 9.20032 2.49486 9.44877 3.1086C9.69788 3.72165 9.55994 4.42846 9.10057 4.89785C8.64119 5.36722 7.94946 5.50817 7.34943 5.25363C6.74876 4.99979 6.35702 4.4011 6.35702 3.73672C6.35702 2.83013 7.07689 2.09458 7.96417 2.09458ZM4.21418 3.18933C4.64743 3.18933 5.03851 3.45616 5.2039 3.86534C5.36998 4.27449 5.27823 4.74523 4.97153 5.05792C4.6655 5.3713 4.20479 5.46503 3.80435 5.29535C3.40391 5.12635 3.14274 4.72677 3.14274 4.28409C3.14274 3.67925 3.62222 3.18933 4.21418 3.18933ZM10.6427 12.3579C10.6427 12.5029 10.5865 12.6425 10.486 12.7451C10.3856 12.8477 10.249 12.9052 10.107 12.9052H2.60705C2.31106 12.9052 2.07134 12.6603 2.07134 12.3579V7.02093C2.07134 6.7185 2.31106 6.47355 2.60705 6.47355H10.107C10.249 6.47355 10.3856 6.53103 10.486 6.63366C10.5865 6.73629 10.6427 6.87587 10.6427 7.02092V12.3579ZM14.9284 11.9117C14.9231 12.0021 14.8749 12.0835 14.7999 12.1307C14.6633 12.2251 14.4898 12.247 14.3351 12.1889L11.7142 11.2385V8.27986L14.3351 7.3288C14.4898 7.27133 14.6626 7.29254 14.7999 7.38696C14.8749 7.43417 14.9231 7.51627 14.9284 7.60591V11.9117ZM5.82132 11.2631C5.82132 11.4082 5.76507 11.5477 5.66462 11.6504C5.56418 11.753 5.42757 11.8105 5.28561 11.8105H3.67847C3.38249 11.8105 3.14276 11.5655 3.14276 11.2631C3.14276 10.9607 3.38249 10.7157 3.67847 10.7157H5.28561C5.42758 10.7157 5.56419 10.7732 5.66462 10.8758C5.76507 10.9785 5.82132 11.1181 5.82132 11.2631Z" fill="white"/>
</g>
<defs>
<clipPath id="clip0_47_125">
<rect width="16" height="16" fill="white"/>
</clipPath>
</defs>
</svg>
