<svg width="16" height="16" viewBox="0 0 16 16" fill="none" xmlns="http://www.w3.org/2000/svg">
<path d="M7.99999 2.12498C5.79061 2.12498 3.99998 3.91561 3.99998 6.12499C3.99998 7.5703 4.77186 8.87968 6.00155 9.59062L6.56249 9.91562V11.75H9.43749V9.91562L9.99843 9.59062C11.2281 8.87968 12 7.5703 12 6.12499C12 3.91561 10.2094 2.12498 7.99999 2.12498Z" fill="black" fill-opacity="0.15"/>
<path d="M9.87499 13.875H6.12499C6.05624 13.875 5.99999 13.9312 5.99999 14V14.5C5.99999 14.7766 6.22343 15 6.49999 15H9.49999C9.77655 15 9.99999 14.7766 9.99999 14.5V14C9.99999 13.9312 9.94374 13.875 9.87499 13.875ZM7.99999 0.999985C5.1703 0.999985 2.87498 3.2953 2.87498 6.12499C2.87498 8.02187 3.90624 9.67812 5.43749 10.5641V12.375C5.43749 12.6516 5.66092 12.875 5.93749 12.875H10.0625C10.3391 12.875 10.5625 12.6516 10.5625 12.375V10.5641C12.0937 9.67812 13.125 8.02187 13.125 6.12499C13.125 3.2953 10.8297 0.999985 7.99999 0.999985ZM9.99843 9.59062L9.43749 9.91562V11.75H6.56249V9.91562L6.00155 9.59062C4.77186 8.87968 3.99999 7.5703 3.99999 6.12499C3.99999 3.91561 5.79061 2.12499 7.99999 2.12499C10.2094 2.12499 12 3.91561 12 6.12499C12 7.5703 11.2281 8.87968 9.99843 9.59062Z" fill="#4A5565"/>
</svg>
