<svg width="16" height="16" viewBox="0 0 16 16" fill="none" xmlns="http://www.w3.org/2000/svg">
<g clip-path="url(#clip0_42_50)">
<path d="M9.74999 11.0359H8.59218V7.25C8.59218 7.18125 8.53593 7.125 8.46718 7.125H7.52968C7.46093 7.125 7.40468 7.18125 7.40468 7.25V11.0359H6.24999C6.14531 11.0359 6.08749 11.1562 6.15156 11.2375L7.90156 13.4516C7.91325 13.4665 7.92819 13.4786 7.94524 13.4869C7.9623 13.4952 7.98102 13.4995 7.99999 13.4995C8.01896 13.4995 8.03769 13.4952 8.05474 13.4869C8.0718 13.4786 8.08674 13.4665 8.09843 13.4516L9.84843 11.2375C9.91249 11.1562 9.85468 11.0359 9.74999 11.0359Z" fill="#4A5565"/>
<path d="M12.6781 5.72969C11.9625 3.84219 10.1391 2.5 8.00313 2.5C5.86719 2.5 4.04375 3.84063 3.32812 5.72813C1.98906 6.07969 1 7.3 1 8.75C1 10.4766 2.39844 11.875 4.12344 11.875H4.75C4.81875 11.875 4.875 11.8188 4.875 11.75V10.8125C4.875 10.7437 4.81875 10.6875 4.75 10.6875H4.12344C3.59687 10.6875 3.10156 10.4781 2.73281 10.0984C2.36562 9.72031 2.17031 9.21094 2.1875 8.68281C2.20156 8.27031 2.34219 7.88281 2.59687 7.55625C2.85781 7.22344 3.22344 6.98125 3.62969 6.87344L4.22188 6.71875L4.43906 6.14687C4.57344 5.79062 4.76094 5.45781 4.99687 5.15625C5.2298 4.85736 5.50571 4.59461 5.81563 4.37656C6.45781 3.925 7.21406 3.68594 8.00313 3.68594C8.79219 3.68594 9.54844 3.925 10.1906 4.37656C10.5016 4.59531 10.7766 4.85781 11.0094 5.15625C11.2453 5.45781 11.4328 5.79219 11.5672 6.14687L11.7828 6.71719L12.3734 6.87344C13.2203 7.10156 13.8125 7.87187 13.8125 8.75C13.8125 9.26719 13.6109 9.75469 13.2453 10.1203C13.066 10.3007 12.8527 10.4437 12.6178 10.541C12.3828 10.6384 12.1309 10.6882 11.8766 10.6875H11.25C11.1812 10.6875 11.125 10.7437 11.125 10.8125V11.75C11.125 11.8188 11.1812 11.875 11.25 11.875H11.8766C13.6016 11.875 15 10.4766 15 8.75C15 7.30156 14.0141 6.08281 12.6781 5.72969Z" fill="#4A5565"/>
</g>
<defs>
<clipPath id="clip0_42_50">
<rect width="16" height="16" fill="white"/>
</clipPath>
</defs>
</svg>
