<svg width="16" height="16" viewBox="0 0 16 16" fill="none" xmlns="http://www.w3.org/2000/svg">
<g clip-path="url(#clip0_47_100)">
<rect width="16" height="16" rx="5" fill="#414141"/>
<path d="M5.05149 3C4.81227 3 4.72263 3.21583 4.61971 3.43178L4.09434 4.53412H1.90986C1.40578 4.53412 1 4.93997 1 5.44405V12.0901C1 12.5942 1.40578 13 1.90986 13H14.0944C14.5985 13 15.0043 12.5942 15.0043 12.0901V5.44405C15.0043 4.93997 14.5985 4.53412 14.0944 4.53412H11.9099L11.3845 3.43178C11.2816 3.21583 11.1919 3 10.9527 3H10.834H5.17025L5.05149 3ZM13.1873 5.28582C13.3237 5.28583 13.4545 5.34001 13.5509 5.43645C13.6474 5.53289 13.7016 5.66368 13.7016 5.80006C13.7016 5.93645 13.6474 6.06727 13.551 6.16372C13.4545 6.26017 13.3237 6.31436 13.1873 6.31437C13.1198 6.31437 13.0529 6.30108 12.9905 6.27523C12.9281 6.24939 12.8714 6.2115 12.8236 6.16374C12.7759 6.11598 12.738 6.05928 12.7122 5.99688C12.6863 5.93448 12.673 5.8676 12.673 5.80006C12.673 5.66367 12.7272 5.53286 12.8237 5.43642C12.9201 5.33999 13.0509 5.28581 13.1873 5.28582ZM8.0021 5.40895C9.80854 5.40895 11.2811 6.8815 11.2811 8.68795C11.2811 10.4944 9.80854 11.967 8.0021 11.967C6.19565 11.967 4.7231 10.4944 4.7231 8.68795C4.7231 6.8815 6.19565 5.40895 8.0021 5.40895ZM8.0021 6.16938C6.60663 6.16938 5.48354 7.29247 5.48354 8.68795C5.48354 10.0834 6.60663 11.2065 8.0021 11.2065C9.39757 11.2065 10.5207 10.0834 10.5207 8.68795C10.5207 7.29247 9.39757 6.16938 8.0021 6.16938Z" fill="white"/>
</g>
<defs>
<clipPath id="clip0_47_100">
<rect width="16" height="16" fill="white"/>
</clipPath>
</defs>
</svg>
