<svg width="16" height="16" viewBox="0 0 16 16" fill="none" xmlns="http://www.w3.org/2000/svg">
<g clip-path="url(#clip0_47_119)">
<rect width="16" height="16" rx="5" fill="#414141"/>
<path d="M8.49714 3.24535C7.17254 1.60098 4.69266 1.39144 2.98032 2.7708C1.268 4.15013 0.944639 6.61776 2.26925 8.26214C3.06648 9.25183 4.3188 9.76193 5.60678 9.63541L6.06729 10.1947C6.15078 10.2984 6.27441 10.3636 6.41032 10.3745L7.31015 10.4439L7.18755 11.3394L7.18814 11.3401C7.16907 11.4758 7.20635 11.6118 7.29043 11.7162C7.37509 11.8213 7.49949 11.886 7.63614 11.8962L8.53245 11.9613L8.40868 12.8553L8.40926 12.856C8.39019 12.9917 8.42672 13.1284 8.51138 13.2335C8.59605 13.3386 8.72179 13.4034 8.85903 13.4143L9.76003 13.4852L9.63626 14.3792C9.60113 14.6482 9.78213 14.8899 10.0497 14.9295L12.609 15.3398L12.6082 15.3404C12.7528 15.3636 12.9033 15.3229 13.0197 15.2292C13.1361 15.1354 13.2079 14.997 13.216 14.8508L13.3647 12.2592C13.3728 12.1347 13.335 12.0135 13.258 11.9179L13.2568 11.9164L9.12413 6.79843C9.52125 5.56753 9.29544 4.23186 8.49877 3.24287L8.49714 3.24535ZM5.50324 4.04562C5.89303 4.5295 5.8032 5.25053 5.30123 5.65489C5.06083 5.84854 4.75483 5.9422 4.4517 5.9156C4.14873 5.88768 3.87282 5.74169 3.68585 5.50959C3.4983 5.27676 3.41441 4.97609 3.45223 4.67485C3.49021 4.37228 3.64687 4.09325 3.88728 3.89959C4.38926 3.49522 5.11287 3.561 5.50324 4.04562Z" fill="white"/>
</g>
<defs>
<clipPath id="clip0_47_119">
<rect width="16" height="16" fill="white"/>
</clipPath>
</defs>
</svg>
