<svg width="16" height="16" viewBox="0 0 16 16" fill="none" xmlns="http://www.w3.org/2000/svg">
<path d="M12.6667 4.66667L12.0887 12.7613C12.0647 13.0977 11.9142 13.4125 11.6674 13.6424C11.4206 13.8722 11.0959 14 10.7587 14H5.24134C4.9041 14 4.57938 13.8722 4.3326 13.6424C4.08581 13.4125 3.93528 13.0977 3.91134 12.7613L3.33334 4.66667M6.66667 7.33333V11.3333M9.33334 7.33333V11.3333M10 4.66667V2.66667C10 2.48986 9.92977 2.32029 9.80474 2.19526C9.67972 2.07024 9.51015 2 9.33334 2H6.66667C6.48986 2 6.32029 2.07024 6.19527 2.19526C6.07024 2.32029 6.00001 2.48986 6.00001 2.66667V4.66667M2.66667 4.66667H13.3333" stroke="#4A5565" stroke-width="1.33333" stroke-linecap="round" stroke-linejoin="round"/>
</svg>
