<svg width="16" height="16" viewBox="0 0 16 16" fill="none" xmlns="http://www.w3.org/2000/svg">
<path d="M9.25 12.55C8.8379 12.6279 8.4194 12.667 8 12.6667C5.01467 12.6667 2.488 10.7047 1.638 8C1.86685 7.27207 2.21933 6.58898 2.68 5.98067M9.41333 9.41333L6.58533 6.586C6.96044 6.2109 7.46919 6.00016 7.99967 6.00016C8.53015 6.00016 9.0389 6.2109 9.414 6.586C9.78911 6.9611 9.99984 7.46986 9.99984 8.00033C9.99984 8.53081 9.78911 9.03956 9.414 9.41467L11.608 11.608M6.58667 6.58667L4.39333 4.39333M4.39333 4.39333L2 2M4.39333 4.39333C5.46824 3.69971 6.72073 3.3316 8 3.33333C10.9853 3.33333 13.512 5.29533 14.362 8C13.8927 9.48697 12.9183 10.763 11.6073 11.6073L14 14" stroke="#99A1AF" stroke-width="1.33333" stroke-linecap="round" stroke-linejoin="round"/>
</svg>
